<?xml version="1.0" standalone="no"?>
<!DOCTYPE svg PUBLIC "-//W3C//DTD SVG 20010904//EN"
 "http://www.w3.org/TR/2001/REC-SVG-20010904/DTD/svg10.dtd">
<svg version="1.0" xmlns="http://www.w3.org/2000/svg"
 width="1200.000000pt" height="754.000000pt" viewBox="0 0 1200.000000 754.000000"
 preserveAspectRatio="xMidYMid meet">

<g transform="translate(0.000000,754.000000) scale(0.100000,-0.100000)"
fill="#000000" stroke="none">
<path d="M0 3770 l0 -3770 485 0 c460 0 485 1 485 18 0 10 -4 22 -10 28 -5 5
-16 39 -23 75 -8 40 -22 74 -35 87 -28 28 -28 45 0 77 16 19 24 22 35 14 7 -6
13 -20 13 -30 0 -11 4 -19 9 -19 5 0 12 -9 16 -19 6 -20 34 -35 75 -40 13 -1
13 -78 0 -86 -13 -8 -13 -52 0 -60 6 -3 10 -15 10 -26 0 -19 15 -19 835 -19
727 0 835 2 835 15 0 18 34 37 53 29 8 -3 18 -1 22 5 3 6 2 11 -4 11 -6 0 -8
6 -5 14 5 13 -24 31 -34 21 -3 -3 0 -5 6 -5 19 0 14 -17 -7 -23 -14 -3 -18 -1
-14 9 3 9 -2 14 -17 14 -11 0 -18 5 -15 10 3 6 15 10 26 10 10 0 19 5 19 12 0
6 7 4 18 -5 10 -10 21 -14 25 -11 3 3 14 3 24 0 14 -4 18 -16 18 -46 0 -22 -3
-40 -7 -40 -5 0 -8 5 -8 10 0 6 -4 10 -10 10 -12 0 -13 -10 -2 -27 4 -6 19 -9
34 -6 21 4 26 9 22 29 -3 17 0 24 11 24 8 0 15 5 15 10 0 6 -7 10 -15 10 -8 0
-15 5 -15 10 0 6 9 10 20 10 11 0 21 3 21 8 7 37 4 54 -8 59 -11 4 -12 8 -3
13 9 6 7 13 -8 28 -11 11 -24 27 -29 37 -9 15 -13 15 -31 4 -11 -7 -23 -21
-25 -31 -5 -18 -37 -26 -37 -9 0 6 -37 8 -86 6 -48 -2 -96 0 -107 4 -19 7 -19
8 7 15 33 8 32 36 -2 51 -23 10 -30 25 -12 25 6 0 10 5 10 11 0 5 -4 8 -9 5
-5 -3 -12 5 -15 19 -4 14 -14 25 -22 25 -14 0 -14 2 -3 16 10 12 23 14 51 10
21 -4 38 -2 38 3 0 13 -34 23 -54 15 -9 -3 -16 -1 -16 5 0 12 65 14 90 3 21
-10 25 -42 5 -42 -9 0 -14 -4 -11 -9 9 -13 57 12 51 27 -2 6 0 12 5 12 6 0 10
9 10 19 0 26 10 31 39 20 15 -6 21 -14 17 -24 -4 -11 2 -15 19 -15 29 0 34 16
8 23 -11 3 -6 5 11 6 23 1 27 -2 21 -16 -12 -31 -10 -37 10 -40 11 -1 14 0 8
3 -28 12 -12 30 27 30 22 0 40 -4 40 -9 0 -5 7 -7 15 -3 8 3 19 -2 24 -12 8
-13 10 -14 11 -3 0 12 3 12 12 3 7 -7 29 -12 49 -12 21 0 41 -4 44 -10 3 -5
16 -10 29 -10 20 0 120 -36 164 -60 46 -24 152 -62 178 -63 38 -2 48 17 11 21
-16 2 -44 14 -63 27 -20 13 -44 27 -55 30 -10 4 -19 11 -19 16 0 5 -13 9 -30
9 -16 0 -30 5 -30 10 0 6 -8 10 -19 10 -10 0 -30 9 -44 20 -14 11 -39 20 -55
20 -17 0 -34 4 -37 10 -3 5 -17 10 -30 10 -13 0 -30 7 -38 15 -8 8 -33 17 -56
21 -39 6 -71 29 -68 48 1 6 -14 14 -33 19 -19 5 -30 11 -24 14 6 2 37 -4 70
-13 32 -9 70 -18 84 -21 14 -2 34 -8 45 -13 11 -5 43 -18 70 -30 28 -11 58
-25 67 -30 10 -6 26 -10 35 -10 10 0 31 -7 47 -15 15 -8 32 -15 36 -15 5 0 42
-16 84 -36 42 -19 84 -33 94 -31 15 3 15 5 -3 12 -62 24 -115 51 -115 57 0 5
-7 8 -15 8 -8 0 -40 12 -72 26 -61 26 -183 73 -316 120 -43 15 -80 30 -82 35
-6 8 -1 7 158 -47 59 -20 110 -41 113 -45 3 -5 15 -9 28 -9 13 0 36 -6 52 -14
16 -8 47 -22 69 -31 22 -9 68 -30 102 -46 64 -29 107 -37 118 -20 3 6 -3 14
-13 20 -10 5 -24 21 -32 35 -10 20 -16 23 -27 15 -11 -9 -12 -5 -6 22 6 32 5
33 -12 19 -17 -14 -18 -13 -11 13 6 26 -8 39 -17 15 -2 -7 -8 -9 -13 -5 -5 4
-2 12 5 17 8 4 11 15 8 23 -4 11 3 19 24 26 18 6 27 6 24 1 -4 -6 1 -17 9 -26
12 -12 16 -12 16 -2 0 7 8 21 18 29 16 14 18 29 15 110 -2 52 -6 105 -9 119
-5 21 -7 23 -15 8 -6 -10 -16 -15 -25 -11 -9 3 -20 0 -24 -8 -12 -18 -18 -10
-25 35 -4 22 -2 43 5 51 8 10 7 16 -6 23 -13 7 -15 17 -11 40 7 32 -6 52 -19
30 -7 -11 -20 -64 -29 -123 -3 -16 -9 -31 -15 -33 -5 -2 -10 -15 -10 -28 0
-14 -7 -38 -15 -54 -9 -17 -16 -33 -16 -37 -1 -5 -4 -14 -6 -21 -3 -6 -3 -48
-1 -92 3 -44 1 -80 -3 -80 -19 0 -39 14 -39 27 0 10 -7 14 -17 11 -23 -6 -27
34 -9 82 8 19 17 71 21 115 4 44 11 88 17 98 8 16 6 18 -18 15 -18 -2 -28 -10
-30 -23 -9 -62 -22 -113 -32 -132 -7 -12 -12 -45 -12 -73 0 -38 -4 -52 -16
-57 -21 -8 -55 35 -48 60 3 11 0 17 -10 17 -8 0 -18 4 -21 10 -3 5 0 7 7 5 10
-4 13 4 10 35 -3 31 -8 40 -22 40 -11 0 -21 4 -24 8 -3 5 -7 63 -10 131 -3 67
-10 131 -16 141 -12 22 -30 27 -30 8 0 -7 -9 -2 -20 12 -20 24 -21 25 -35 6
-10 -13 -15 -42 -15 -82 0 -46 -4 -63 -15 -68 -11 -4 -15 2 -15 25 0 38 -21
86 -55 124 -14 16 -35 44 -46 62 -11 18 -25 33 -29 33 -5 0 -18 10 -29 22 -16
17 -18 24 -9 35 9 12 7 13 -15 8 -37 -10 -34 5 13 67 22 29 40 57 40 62 0 9
-46 -27 -61 -47 -3 -4 -18 -10 -34 -13 -16 -3 -32 -7 -37 -10 -8 -5 -38 19
-38 30 0 3 9 6 20 6 15 0 20 7 20 29 0 17 -4 33 -10 36 -5 3 -10 19 -10 34 0
15 -7 36 -15 47 -8 10 -15 29 -15 41 0 12 -4 25 -10 28 -5 3 -10 14 -10 25 0
10 -8 35 -19 57 -33 67 -44 112 -31 127 6 8 9 20 8 27 -4 18 34 24 46 7 12
-16 17 -18 41 -18 8 0 15 -5 15 -12 0 -6 14 -24 31 -39 18 -16 28 -33 24 -39
-4 -7 2 -14 15 -17 13 -3 23 -16 27 -33 3 -15 15 -33 27 -38 17 -9 18 -11 4
-11 -25 -1 -23 -32 2 -38 11 -3 20 -11 20 -19 0 -7 5 -16 11 -20 7 -4 9 0 5
14 -7 22 7 37 24 27 8 -5 7 -11 -1 -21 -10 -12 -7 -20 12 -40 13 -14 24 -31
25 -37 0 -7 2 -18 2 -25 1 -8 10 -12 20 -10 11 2 17 13 18 33 0 17 6 29 12 28
7 -2 12 2 12 7 0 14 -33 13 -48 -2 -9 -9 -12 -5 -12 20 0 22 5 32 15 32 8 0
15 -6 15 -12 0 -9 3 -9 9 1 12 19 91 8 108 -15 10 -14 15 -15 28 -4 15 12 16
11 19 -11 0 -6 10 -17 21 -25 16 -12 18 -18 7 -34 -13 -21 -6 -26 16 -11 7 4
12 14 10 21 -2 7 2 14 9 17 7 3 9 -3 6 -18 -5 -18 -3 -21 11 -16 10 4 22 7 27
7 19 0 8 47 -16 68 -14 12 -25 28 -25 34 -1 17 -35 58 -49 58 -6 0 -11 5 -11
10 0 13 12 13 45 0 18 -7 24 -7 20 0 -4 6 -1 18 6 26 6 8 9 18 5 21 -4 4 -11
1 -16 -7 -6 -9 -10 -10 -10 -3 0 6 6 18 13 25 20 19 20 20 3 53 -15 28 -15 30
4 33 15 3 19 9 14 26 -4 16 0 25 10 29 12 5 16 0 16 -18 0 -28 3 -29 31 -15
16 9 19 7 19 -12 0 -19 -2 -20 -11 -8 -9 13 -10 13 -6 0 2 -8 8 -14 13 -13 5
1 15 3 23 5 8 2 17 -6 19 -17 7 -33 22 -42 22 -12 0 15 5 27 10 27 6 0 10 -8
10 -17 0 -30 32 -103 46 -103 7 0 14 -10 16 -22 2 -18 10 -22 42 -22 22 -1 41
-7 43 -13 3 -9 -6 -13 -26 -13 -26 0 -31 -4 -31 -25 0 -18 4 -23 15 -19 11 5
15 -1 15 -20 0 -30 24 -36 36 -8 6 14 8 12 14 -13 12 -47 11 -125 -1 -125 -5
0 -7 -5 -4 -10 13 -22 23 3 30 75 4 49 11 75 19 75 7 0 24 12 39 27 24 26 26
33 22 103 -2 41 -6 215 -10 385 -6 302 -8 314 -42 480 -19 94 -43 221 -54 284
-11 63 -27 130 -35 149 -8 19 -17 60 -20 91 l-5 56 26 -30 c14 -16 35 -47 46
-68 11 -20 40 -58 64 -84 44 -45 45 -46 65 -28 24 22 25 40 4 80 -15 29 -33
158 -34 239 l0 38 43 -5 c316 -40 630 -40 651 -2 18 32 67 75 90 79 11 2 50 9
86 15 36 7 85 18 110 25 25 8 65 19 90 26 102 30 228 93 325 163 39 28 75 57
81 65 13 18 34 8 34 -18 0 -29 50 -64 121 -84 50 -15 76 -30 119 -71 30 -29
84 -69 120 -88 36 -20 97 -63 135 -97 72 -62 112 -78 163 -65 15 3 57 10 94
15 108 14 198 46 278 99 106 70 380 345 380 382 0 15 -16 10 -90 -25 -38 -19
-70 -32 -70 -29 0 3 -7 0 -15 -7 -10 -9 -31 -10 -65 -6 -44 6 -50 4 -50 -11
-1 -17 -2 -17 -15 1 -8 11 -12 29 -9 41 4 15 0 24 -11 29 -9 3 -14 10 -11 15
13 21 -71 23 -123 2 -31 -12 -156 -41 -178 -41 -29 0 -9 8 70 29 43 12 85 25
95 30 14 8 44 20 62 26 26 8 90 41 90 47 0 4 -24 -2 -52 -13 -70 -28 -66 -27
-120 -33 -37 -4 -48 -1 -53 12 -7 19 23 62 56 79 13 7 20 13 15 13 -5 0 -3 6
3 14 10 11 8 16 -6 20 -26 8 -182 10 -190 3 -3 -4 5 -7 18 -7 34 0 48 -12 55
-46 5 -28 2 -32 -31 -48 -75 -36 -258 -32 -715 14 -107 11 -231 25 -275 30
-84 10 -249 26 -625 60 -434 39 -660 71 -1055 146 -129 25 -263 65 -298 90
-31 21 278 19 310 -2 23 -15 26 -14 49 11 13 14 24 32 24 40 0 7 4 15 9 17 6
2 13 19 16 38 3 19 14 44 24 55 19 21 41 88 41 124 0 12 6 21 15 21 10 0 15
10 15 29 0 40 28 71 70 76 19 2 36 9 38 15 5 13 59 13 67 0 11 -17 25 -11 35
15 8 22 14 24 37 19 16 -4 25 -3 21 1 -4 4 -3 18 3 32 5 15 5 22 0 18 -5 -3
-13 0 -17 6 -5 8 1 10 20 7 30 -6 34 12 14 57 -9 19 -9 28 0 37 7 7 11 30 10
52 l-1 41 -7 -45 -7 -45 -1 53 c-1 29 -7 52 -13 52 -6 0 -9 15 -8 35 3 27 -2
39 -19 51 -12 8 -22 22 -22 30 0 8 -4 14 -9 14 -6 0 -22 11 -37 25 -15 14 -33
25 -41 25 -8 0 -11 5 -8 10 7 11 -69 87 -97 95 -9 4 -15 12 -12 20 3 8 -3 19
-14 26 -12 8 -18 20 -15 33 4 17 3 18 -5 7 -9 -12 -12 -9 -18 15 -4 16 -14 39
-22 52 -8 12 -11 22 -7 22 4 0 3 6 -2 13 -6 6 -13 25 -17 41 -7 31 -28 56 -45
56 -16 0 -13 11 6 26 10 7 15 16 11 20 -4 4 -14 1 -23 -6 -24 -20 -25 -8 -4
40 12 25 23 55 25 68 4 20 2 22 -13 13 -10 -5 -31 -24 -47 -41 -16 -17 -31
-29 -33 -26 -17 16 61 91 253 244 77 62 217 119 344 142 36 6 101 22 144 36
44 13 88 24 98 24 28 0 132 38 143 53 14 17 79 43 143 57 29 7 51 15 48 18 -8
7 14 33 23 28 12 -8 30 30 21 44 -10 17 -94 24 -145 13 -22 -5 -48 -7 -57 -5
-30 6 -20 31 15 36 247 42 242 39 234 100 -7 49 -28 69 -94 90 -71 22 -129 21
-160 -4 -14 -11 -32 -20 -39 -20 -8 0 -14 -4 -14 -10 0 -5 -9 -10 -20 -10 -11
0 -20 -6 -20 -12 0 -7 -19 -22 -41 -33 l-41 -19 -24 29 c-37 47 -74 131 -72
168 1 20 -7 45 -20 63 -26 35 -52 116 -52 162 0 36 -60 164 -95 202 -13 14
-31 48 -40 75 -22 67 -41 95 -65 95 -30 0 -44 -45 -30 -93 6 -21 8 -47 4 -59
-4 -14 -2 -18 5 -14 16 10 48 -24 55 -61 6 -24 3 -35 -12 -50 -11 -10 -25 -43
-32 -73 -15 -66 -35 -107 -44 -92 -3 5 -14 8 -24 5 -30 -7 -46 38 -45 130 0
48 -5 85 -11 89 -6 4 -12 44 -13 89 -2 63 -7 89 -21 108 -10 14 -31 51 -46 81
-37 76 -71 132 -81 134 -4 0 -16 -28 -26 -64 -15 -56 -73 -185 -90 -200 -3 -3
-22 -41 -42 -84 -36 -77 -38 -83 -31 -150 12 -112 8 -152 -26 -291 -18 -71
-34 -166 -37 -210 -6 -104 13 -510 27 -555 9 -32 8 -37 -20 -63 -16 -15 -30
-32 -30 -38 0 -5 -6 -9 -14 -9 -11 0 -13 7 -6 29 6 22 5 31 -6 35 -16 6 -19
42 -4 51 5 3 12 -6 16 -20 3 -14 10 -25 14 -25 14 0 22 38 12 57 -5 10 -12 48
-15 86 -9 97 -22 115 -35 46 -20 -105 -24 -134 -23 -199 1 -36 -2 -84 -5 -108
-6 -41 -7 -42 -25 -26 -15 13 -19 14 -19 3 0 -8 -10 2 -23 21 l-22 35 -3 -30
c-4 -39 -18 -53 -27 -27 -3 13 -12 19 -20 16 -11 -5 -12 -10 -2 -24 9 -15 8
-23 -6 -38 -9 -10 -17 -24 -17 -31 0 -8 -6 -11 -16 -7 -13 5 -15 1 -10 -19 4
-17 2 -25 -6 -25 -9 0 -8 -3 2 -10 12 -8 11 -10 -6 -10 -16 0 -23 -8 -27 -27
-3 -16 -2 -32 2 -38 5 -5 6 -27 4 -47 -4 -33 -9 -38 -30 -38 -17 0 -27 -7 -30
-21 -4 -12 -11 -18 -20 -15 -8 3 -20 6 -26 6 -8 0 -7 3 2 9 10 7 10 10 1 16
-7 4 -16 2 -20 -4 -4 -7 -11 -11 -16 -10 -21 4 -26 -2 -14 -16 10 -12 10 -15
-2 -15 -17 0 -17 -43 1 -63 6 -8 14 -38 18 -66 3 -28 12 -56 19 -62 9 -8 10
-17 3 -36 -8 -21 -6 -26 10 -30 27 -7 37 -64 14 -81 -9 -6 -26 -9 -36 -6 -15
5 -18 2 -13 -14 8 -24 -3 -74 -14 -67 -12 8 -20 -21 -8 -33 6 -6 6 -12 -1 -16
-6 -4 -11 -1 -11 8 0 8 -5 16 -11 18 -16 5 -20 61 -6 70 9 6 9 8 -1 8 -7 0
-11 4 -8 9 14 21 -7 41 -43 41 -36 1 -81 28 -81 49 0 6 -7 11 -16 11 -8 0 -13
4 -10 8 3 5 -9 7 -27 5 -31 -3 -31 -3 -7 8 l25 12 -25 7 c-14 5 -19 8 -12 9 6
1 12 6 12 11 0 13 -47 13 -55 0 -3 -5 -18 -10 -33 -10 l-27 1 24 13 24 14 -24
12 c-13 8 -19 15 -12 17 6 2 26 -3 43 -12 24 -12 35 -14 43 -6 9 9 6 13 -11
17 -12 4 -22 10 -22 14 0 5 -9 6 -20 3 -11 -3 -27 0 -35 7 -15 12 -8 32 24 73
13 15 11 17 -20 18 -19 0 -28 3 -21 6 10 4 9 9 -5 20 -13 10 -15 16 -6 19 22
9 14 22 -22 39 -31 15 -34 20 -28 48 3 18 10 34 15 36 5 1 1 9 -9 16 -17 13
-17 14 0 20 9 4 17 11 17 17 0 5 -4 6 -10 3 -9 -6 -14 8 -11 28 0 4 -3 7 -8 7
-5 0 -12 13 -16 29 -3 16 -12 32 -19 34 -9 3 -12 15 -9 31 3 15 1 26 -6 26 -6
0 -10 6 -9 13 2 7 -9 13 -27 15 -29 2 -29 2 -10 -14 19 -16 18 -16 -22 -10
-39 6 -43 4 -43 -14 0 -18 -3 -19 -20 -10 -11 6 -25 8 -30 5 -6 -3 -7 1 -4 9
3 9 14 16 23 16 26 0 21 28 -11 60 -15 16 -28 31 -28 34 0 3 15 6 33 7 l32 1
-29 12 -29 13 26 5 c15 3 32 -1 41 -10 8 -8 22 -12 32 -8 16 6 15 8 -4 26 -22
20 -22 20 -2 40 24 24 45 26 36 5 -3 -8 -1 -15 5 -15 5 0 7 -11 5 -25 -3 -13
0 -27 5 -30 21 -13 7 -24 -28 -22 -34 2 -37 0 -44 -30 -8 -39 2 -41 80 -16 52
16 64 35 35 51 -11 6 -13 12 -6 16 6 4 9 13 5 21 -4 11 2 15 21 15 14 0 26 5
26 11 0 7 -10 9 -25 5 -14 -4 -25 -2 -25 3 0 5 10 12 23 14 21 4 21 4 -3 6
-51 3 -53 18 -2 25 27 3 67 15 88 26 47 23 43 24 -22 6 -71 -20 -137 -29 -129
-17 3 6 21 13 40 17 19 3 32 10 29 15 -3 5 -11 9 -17 7 -20 -4 -87 25 -87 38
0 7 -8 10 -21 7 -21 -6 -21 -7 -4 -19 9 -7 14 -17 11 -22 -3 -6 2 -8 13 -5 25
6 35 -12 16 -31 -15 -15 -50 -12 -40 4 2 4 -19 5 -48 3 -52 -4 -52 -4 -22 11
29 14 29 14 6 15 -22 1 -23 2 -9 19 19 21 13 43 -10 35 -10 -3 -8 1 6 11 26
20 21 36 -14 36 -14 0 -24 6 -24 14 0 9 7 12 20 9 19 -5 29 10 13 20 -5 2 -2
2 5 1 6 -2 12 1 12 7 0 6 7 6 19 -1 13 -7 22 -7 26 0 3 5 0 10 -7 10 -9 1 -8
4 3 10 9 5 39 8 68 7 39 -1 53 -6 57 -19 6 -19 29 -24 38 -9 3 5 35 14 71 21
36 7 64 14 61 17 -2 2 -31 -1 -63 -7 -33 -7 -70 -10 -84 -8 l-24 5 25 11 25
11 -22 7 c-33 9 -28 26 5 18 24 -7 25 -5 14 9 -11 13 -10 17 5 26 15 9 13 10
-14 11 -22 0 -33 -5 -33 -14 0 -21 -31 -28 -50 -11 -13 12 -23 13 -44 5 -16
-6 -40 -6 -64 -1 l-37 9 41 1 c22 1 45 6 52 13 16 16 53 17 59 1 3 -7 9 -13
14 -13 14 0 11 28 -3 33 -10 4 -10 7 0 18 10 11 12 10 12 -4 0 -11 8 -17 25
-17 31 0 32 8 3 20 -23 9 -23 9 2 10 l25 1 -24 13 -24 13 33 12 c18 6 42 11
54 12 18 1 18 2 -4 8 -14 5 -41 6 -60 5 -25 -3 -20 1 19 10 29 8 57 18 62 23
11 11 -73 3 -85 -8 -6 -5 -19 -9 -30 -8 -19 0 -18 2 4 11 14 6 40 18 58 26 17
8 32 19 32 25 0 7 -4 7 -12 -1 -7 -7 -26 -11 -42 -11 -17 1 -23 3 -13 6 9 2
17 8 17 13 0 5 8 11 18 13 9 2 2 2 -17 0 -30 -4 -32 -3 -19 10 8 8 23 17 34
20 10 3 -1 4 -26 1 l-45 -5 30 26 c17 13 27 25 23 26 -5 1 -17 2 -27 3 -28 2
-33 10 -22 40 7 17 7 26 1 26 -6 0 -12 0 -15 0 -3 0 -5 -3 -4 -7 0 -4 -8 -10
-18 -14 -10 -3 -18 -15 -18 -25 0 -10 -6 -20 -12 -20 -7 -1 -18 -2 -24 -3 -7
0 -9 -12 -6 -26 3 -16 0 -24 -7 -22 -6 2 -11 12 -12 23 -2 50 -4 56 -19 50
-15 -5 -19 7 -17 44 0 8 -10 29 -24 47 -13 18 -21 38 -18 47 4 9 1 16 -6 16
-7 0 -10 7 -6 15 4 10 -1 15 -14 15 -14 0 -20 7 -20 21 0 11 4 18 9 14 5 -3
12 -1 16 5 3 5 -2 10 -12 10 -17 1 -17 1 0 11 23 14 51 3 43 -16 -8 -22 12
-18 24 5 9 17 7 22 -12 30 l-23 9 23 7 c12 3 22 10 22 15 0 13 -34 11 -47 -2
-6 -6 -16 -8 -23 -4 -19 11 41 37 73 31 15 -3 27 -2 27 3 0 14 -73 22 -81 9
-6 -9 -13 -9 -31 0 -13 6 -34 13 -48 15 -14 2 8 5 49 6 64 1 72 3 61 16 -8 10
-9 15 -2 15 6 0 9 7 6 15 -4 8 -18 15 -33 15 -22 1 -24 2 -8 11 9 5 21 8 26 5
5 -3 11 0 14 7 4 11 -8 12 -51 9 -60 -5 -65 5 -10 18 33 8 33 8 4 9 -21 1 -27
5 -22 16 3 10 -1 15 -14 15 -10 0 -22 5 -25 10 -3 6 -1 10 6 10 8 0 8 4 -1 15
-9 11 -10 18 -1 29 9 11 5 15 -21 20 -30 6 -31 8 -15 20 22 17 22 22 -1 28
-15 4 -18 14 -16 56 1 35 -2 52 -11 56 -10 4 -12 13 -5 35 6 21 4 35 -6 50 -8
11 -14 24 -13 28 1 4 -1 16 -5 26 -6 13 -20 17 -60 16 l-51 -1 35 -10 c40 -12
25 -22 -26 -16 -23 3 -34 0 -34 -9 0 -13 20 -17 70 -14 18 1 28 -6 36 -23 14
-30 3 -36 -58 -36 -54 0 -42 -11 14 -14 34 -1 43 -5 42 -19 -1 -9 3 -17 8 -17
5 0 8 -6 5 -12 -2 -7 0 -23 4 -35 7 -20 5 -23 -19 -24 -17 -1 -20 -3 -9 -6 23
-6 22 -12 -14 -49 -17 -17 -27 -34 -21 -38 5 -3 19 5 31 18 15 16 29 22 47 18
32 -6 44 -25 13 -20 -14 2 -24 -2 -25 -9 -1 -7 -2 -20 -3 -28 -1 -10 -12 -15
-36 -15 -33 0 -35 -2 -35 -35 0 -41 7 -45 20 -10 6 16 14 23 25 19 21 -8 19
-34 -2 -35 -13 0 -11 -3 7 -11 l25 -10 -27 -10 c-18 -6 -25 -14 -21 -24 3 -9
0 -14 -7 -12 -7 2 -14 -2 -16 -8 -3 -5 10 -10 30 -11 19 -1 42 -6 53 -13 14
-9 9 -10 -29 -5 -40 5 -48 3 -48 -9 0 -10 9 -16 23 -17 16 -1 18 -2 5 -6 -19
-5 -26 -53 -8 -53 6 0 10 7 10 15 0 12 4 11 20 -5 12 -12 35 -21 55 -21 19 -1
40 -3 45 -4 6 -1 28 -3 51 -4 25 -1 38 -5 34 -11 -4 -7 -31 -8 -70 -5 -63 7
-63 6 -58 -17 4 -13 10 -26 16 -29 5 -4 2 -18 -8 -33 -16 -23 -16 -26 -1 -26
9 0 16 -4 16 -10 0 -5 -4 -10 -9 -10 -17 0 -19 -64 -4 -89 14 -22 14 -24 -2
-18 -9 4 -21 7 -26 7 -6 0 -9 10 -7 22 2 11 -2 23 -9 25 -6 2 -13 -8 -16 -24
-3 -19 -5 -14 -6 17 -1 25 -6 52 -11 60 -12 18 -12 24 0 -130 6 -69 12 -165
15 -215 3 -49 10 -121 16 -159 15 -94 17 -354 3 -382 -8 -14 -8 -27 -2 -39 6
-9 10 -88 11 -175 1 -121 -2 -162 -13 -175 -12 -14 -12 -18 1 -25 10 -7 11
-12 2 -21 -6 -6 -16 -8 -22 -5 -17 11 -13 52 6 71 13 14 14 21 4 36 -19 32
-33 217 -19 256 9 24 9 42 1 66 -5 17 -11 79 -12 137 -1 77 -6 109 -17 121 -8
9 -15 25 -14 35 0 11 2 57 3 104 3 62 0 94 -12 117 -13 27 -13 38 -3 67 11 29
10 41 -2 70 -9 21 -13 50 -9 70 3 19 1 36 -6 40 -14 9 -14 51 0 77 5 11 14 17
20 14 5 -4 9 1 9 9 0 9 -5 16 -10 16 -15 0 -49 83 -49 122 -1 30 -12 156 -25
288 -3 30 -8 75 -10 100 -3 25 -12 92 -21 150 -10 58 -18 124 -18 148 0 23 -4
42 -9 42 -5 0 -9 28 -9 63 1 156 -9 207 -40 207 -18 0 -24 -15 -21 -50 1 -8 2
-36 3 -62 0 -26 9 -63 19 -83 15 -30 16 -36 4 -43 -12 -7 -13 -14 -4 -36 13
-34 38 -204 50 -341 5 -55 14 -140 21 -190 6 -49 12 -142 13 -205 2 -63 5
-122 8 -130 6 -15 15 -102 23 -242 2 -42 10 -98 16 -125 13 -54 17 -176 23
-600 3 -177 1 -295 -5 -298 -5 -4 -12 2 -15 12 -10 31 -28 67 -40 83 -7 8 -12
26 -12 40 -1 53 -10 94 -24 104 -23 17 -31 81 -15 113 8 15 12 34 9 42 -2 8 3
18 12 23 35 20 11 73 -49 106 -11 6 -14 12 -7 12 6 0 12 9 12 19 0 25 60 57
72 39 5 -9 8 -7 8 7 -1 39 -47 74 -69 52 -14 -14 -91 -18 -91 -5 0 4 -7 8 -15
8 -8 0 -15 -9 -15 -20 0 -13 -7 -20 -20 -20 -23 0 -26 10 -8 28 9 9 6 12 -14
12 -32 0 -100 38 -92 51 3 5 -1 15 -8 23 -11 11 -14 11 -24 -2 -16 -22 -44 -8
-44 23 0 18 5 25 19 25 11 0 23 -5 26 -10 7 -11 25 -4 25 10 0 5 -6 15 -13 22
-32 34 -48 70 -42 97 3 15 1 41 -5 57 -13 32 -17 140 -7 151 13 13 7 99 -9
121 -8 12 -16 43 -17 67 -2 42 -4 45 -29 45 -23 0 -28 5 -28 23 0 13 5 28 12
35 9 9 7 12 -10 12 -21 0 -22 3 -18 60 2 33 0 60 -5 60 -17 0 -9 60 11 80 18
18 18 20 2 29 -15 8 -13 11 11 20 34 13 50 14 43 2 -3 -4 13 -24 35 -44 33
-30 45 -35 69 -30 17 3 30 12 30 20 0 13 13 14 85 8 l85 -7 0 26 c0 17 -10 33
-30 48 -16 12 -30 29 -30 39 0 18 -51 34 -60 18 -3 -5 -13 -1 -22 9 -32 33
-47 42 -63 36 -12 -5 -16 -2 -13 11 5 27 -21 30 -31 3 -6 -12 -10 -18 -10 -11
-1 9 -6 9 -24 0 -33 -17 -31 -30 6 -45 l32 -12 -32 3 c-21 2 -34 -2 -38 -10
-2 -8 -9 -11 -15 -8 -6 4 -8 10 -5 15 3 5 -2 22 -12 37 -10 14 -18 32 -18 37
0 16 -44 70 -51 63 -4 -3 -6 -25 -6 -47 l1 -41 -18 23 c-10 13 -21 48 -24 78
-4 30 -13 60 -20 65 -7 6 -11 18 -9 27 3 13 -1 16 -15 12 -17 -5 -17 -4 1 10
17 14 17 16 3 22 -23 8 -21 21 3 29 11 4 20 15 20 26 0 14 6 19 18 17 9 -2 17
-10 17 -18 0 -9 11 -16 25 -18 52 -6 69 -13 100 -42 18 -16 41 -30 51 -30 10
0 19 -6 19 -14 0 -8 13 -26 30 -39 16 -14 30 -33 30 -41 0 -9 7 -16 15 -16 13
0 21 33 16 64 -1 5 7 15 19 23 11 8 18 19 14 24 -7 12 15 69 27 69 16 0 32 41
20 53 -6 6 -11 19 -11 28 0 10 -6 19 -12 22 -10 3 -10 7 -1 19 10 11 10 17 1
26 -9 9 -8 12 4 12 12 0 17 12 20 45 2 31 -1 45 -9 45 -7 0 -13 5 -13 10 0 6
7 10 16 10 12 0 15 6 10 24 -4 18 -1 28 11 35 43 25 -17 31 -337 31 -321 0
-325 0 -297 -19 16 -10 40 -35 55 -55 35 -50 38 -159 6 -203 -33 -44 -75 -51
-135 -22 -51 23 -88 65 -118 134 -8 17 -16 24 -18 18 -9 -24 18 -79 64 -128
46 -50 46 -50 112 -51 87 -2 85 -2 72 -18 -9 -11 -8 -15 4 -20 9 -3 13 -10 10
-16 -3 -5 -2 -10 2 -10 13 0 15 -157 3 -165 -7 -4 -10 -45 -9 -104 2 -102 -3
-126 -27 -117 -24 9 -27 -15 -5 -38 12 -12 21 -35 21 -50 0 -25 -2 -27 -35
-20 -36 6 -42 0 -25 -26 5 -8 5 -19 1 -25 -9 -11 -20 -81 -24 -155 -3 -50 10
-107 29 -130 8 -9 11 -26 7 -40 -13 -51 -52 -53 -88 -6 -29 38 -35 84 -15 121
9 17 10 28 3 37 -6 7 -11 53 -12 103 -1 49 -5 93 -8 99 -4 5 -8 80 -10 165 -6
248 -9 293 -23 343 -7 27 -10 57 -7 69 6 22 -10 79 -23 79 -13 0 -20 -59 -10
-85 6 -16 6 -44 0 -77 -7 -35 -7 -65 0 -88 6 -19 13 -174 16 -345 3 -170 10
-330 15 -355 17 -82 -4 -155 -24 -85 -5 17 -15 44 -22 61 -11 25 -10 36 1 63
8 18 11 38 7 45 -9 12 -14 81 -11 136 3 49 1 118 -6 245 -7 115 -10 259 -7
285 2 8 -1 39 -5 67 -4 35 -3 57 5 66 8 11 7 23 -4 51 -9 22 -13 50 -10 69 6
30 12 86 14 131 1 11 6 16 15 13 13 -5 33 11 50 41 6 9 -57 12 -298 12 l-306
0 0 -3770z m1238 3633 c-10 -2 -26 -2 -35 0 -10 3 -2 5 17 5 19 0 27 -2 18 -5z
m26 -33 c28 -10 35 -30 11 -30 -8 0 -15 5 -15 10 0 6 -14 10 -31 10 -17 0 -28
4 -24 10 8 13 27 13 59 0z m-764 -311 c0 -11 -4 -18 -10 -14 -5 3 -7 12 -3 20
7 21 13 19 13 -6z m2859 -138 c14 -42 15 -161 1 -161 -5 0 -10 6 -11 13 0 6
-2 35 -3 62 -2 28 -6 70 -10 95 -9 51 4 46 23 -9z m-1539 -51 c0 -5 -2 -10 -4
-10 -3 0 -8 5 -11 10 -3 6 -1 10 4 10 6 0 11 -4 11 -10z m-670 -50 c0 -5 -4
-10 -9 -10 -6 0 -13 5 -16 10 -3 6 1 10 9 10 9 0 16 -4 16 -10z m790 -130 c0
-5 -13 -10 -30 -10 -16 0 -30 5 -30 10 0 6 14 10 30 10 17 0 30 -4 30 -10z
m-150 -31 c0 -5 -9 -9 -20 -9 -11 0 -20 4 -20 8 0 4 9 8 20 9 11 1 20 -2 20
-8z m6 -30 c3 -6 0 -15 -7 -20 -22 -14 -28 -11 -22 11 6 22 18 26 29 9z m78
-21 c-15 -7 -28 -7 -40 1 -16 9 -12 10 21 10 35 0 37 -2 19 -11z m6 -64 c0 -2
-11 -4 -25 -4 -14 0 -25 4 -25 9 0 4 11 6 25 3 14 -2 25 -6 25 -8z m1861 -67
c-1 -4 -1 -12 -1 -19 0 -9 -3 -9 -11 -1 -9 9 -15 8 -26 -3 -14 -13 -53 -20
-53 -9 0 3 12 17 26 30 18 17 31 22 46 16 11 -4 19 -10 19 -14z m-1871 3 c0
-5 -5 -10 -11 -10 -5 0 -7 5 -4 10 3 6 8 10 11 10 2 0 4 -4 4 -10z m-1053 -26
c-3 -3 -12 -4 -19 -1 -8 3 -5 6 6 6 11 1 17 -2 13 -5z m823 -100 c0 -8 -5 -12
-10 -9 -6 4 -8 11 -5 16 9 14 15 11 15 -7z m140 -44 c0 -5 -7 -10 -16 -10 -8
0 -12 5 -9 10 3 6 10 10 16 10 5 0 9 -4 9 -10z m47 -6 c-3 -3 -12 -4 -19 -1
-8 3 -5 6 6 6 11 1 17 -2 13 -5z m1919 -81 c-1 -52 -6 -86 -11 -83 -6 3 -8 24
-7 48 3 35 1 41 -12 36 -9 -3 -16 -1 -16 5 0 6 -9 11 -19 11 -11 0 -23 5 -26
11 -4 6 0 9 11 7 14 -2 20 4 22 25 3 22 8 27 32 27 l29 0 -3 -87z m-1931 47
c17 -7 16 -9 -10 -9 -16 0 -37 4 -45 9 -12 8 -10 10 10 9 14 0 34 -4 45 -9z
m284 -19 c17 -17 17 -20 4 -25 -26 -10 -33 -7 -33 19 0 30 4 31 29 6z m-209
-61 c0 -5 -4 -10 -10 -10 -5 0 -10 5 -10 10 0 6 5 10 10 10 6 0 10 -4 10 -10z
m214 -2 c-3 -4 -13 -8 -22 -8 -16 -1 -15 -2 1 -14 16 -12 14 -14 -19 -20 -38
-8 -58 -1 -30 10 9 3 16 14 16 24 0 14 7 18 30 18 16 -1 27 -5 24 -10z m-1500
-40 c3 -13 6 -45 6 -72 0 -73 -23 -43 -26 34 -2 60 8 80 20 38z m1396 12 c0
-5 -5 -10 -11 -10 -5 0 -7 5 -4 10 3 6 8 10 11 10 2 0 4 -4 4 -10z m157 -6
c-3 -3 -12 -4 -19 -1 -8 3 -5 6 6 6 11 1 17 -2 13 -5z m-103 -30 c9 -3 13 -10
10 -15 -5 -9 9 -13 35 -9 9 1 12 -4 8 -14 -5 -12 0 -16 21 -17 l27 0 -22 -16
c-13 -8 -23 -21 -23 -29 0 -7 -8 -12 -17 -12 -10 1 -40 -3 -67 -7 -36 -6 -47
-5 -42 4 4 6 18 11 32 11 15 0 23 4 19 10 -4 6 -16 8 -28 5 -21 -6 -22 -6 -3
9 11 9 14 16 8 16 -20 0 -13 27 8 33 13 3 18 10 14 21 -7 18 -4 19 20 10z
m-94 -44 c0 -5 -2 -10 -4 -10 -3 0 -8 5 -11 10 -3 6 -1 10 4 10 6 0 11 -4 11
-10z m-1260 -30 c0 -5 -5 -10 -11 -10 -5 0 -7 5 -4 10 3 6 8 10 11 10 2 0 4
-4 4 -10z m1230 -15 c0 -8 -4 -15 -10 -15 -5 0 -7 7 -4 15 4 8 8 15 10 15 2 0
4 -7 4 -15z m-1320 -71 c0 -14 -4 -23 -10 -19 -5 3 -10 15 -10 26 0 10 5 19
10 19 6 0 10 -12 10 -26z m1503 -26 c4 -12 5 -23 4 -24 -10 -7 -116 -11 -112
-3 4 5 24 9 45 9 21 0 42 5 45 10 3 6 1 10 -5 10 -6 0 -8 5 -5 10 10 17 22 11
28 -12z m-71 3 c-12 -7 -62 -4 -62 5 0 2 17 4 38 4 23 0 32 -3 24 -9z m-1424
-65 c2 -21 1 -45 -3 -54 -10 -27 -25 6 -25 56 0 55 24 53 28 -2z m642 -146 c0
-5 -4 -10 -10 -10 -5 0 -10 5 -10 10 0 6 5 10 10 10 6 0 10 -4 10 -10z m-640
-47 c0 -35 -3 -44 -10 -33 -16 25 -11 80 7 80 2 0 3 -21 3 -47z m887 31 c-3
-3 -12 -4 -19 -1 -8 3 -5 6 6 6 11 1 17 -2 13 -5z m-250 -19 c0 -8 -4 -15 -9
-15 -4 0 -8 7 -8 15 0 8 4 15 8 15 5 0 9 -7 9 -15z m803 -24 c0 -5 -16 -9 -35
-9 -19 0 -32 4 -29 9 3 5 18 9 35 9 16 0 29 -4 29 -9z m-742 -21 c11 -18 10
-20 -8 -20 -13 0 -20 7 -20 20 0 11 3 20 8 20 4 0 13 -9 20 -20z m762 -5 c0
-11 -11 -15 -42 -14 -28 1 -34 3 -18 6 14 3 29 9 35 14 14 14 25 11 25 -6z
m-1455 -65 c8 -35 -3 -60 -16 -39 -12 19 -11 69 0 69 5 0 12 -13 16 -30z m681
-5 c-4 -10 1 -15 15 -15 20 0 84 -37 112 -64 8 -9 23 -38 32 -65 15 -47 15
-52 -1 -88 -10 -21 -25 -44 -34 -50 -13 -11 -13 -14 -1 -22 8 -5 22 -28 30
-50 13 -31 31 -49 80 -81 55 -35 68 -40 87 -31 22 9 24 7 34 -28 10 -37 7
-237 -3 -248 -3 -2 -14 22 -24 54 -9 32 -24 63 -33 70 -19 15 -170 78 -191 79
-9 1 -37 15 -62 32 -49 34 -55 52 -58 155 0 26 -2 61 -4 77 -1 17 -3 43 -4 59
0 15 -11 44 -24 62 -13 19 -22 40 -19 47 2 7 0 18 -6 25 -5 7 -12 24 -16 39
-5 21 -1 30 16 42 30 21 82 22 74 1z m824 -54 c0 -10 -42 -23 -49 -15 -7 6 20
24 37 24 6 0 12 -4 12 -9z m-1501 -118 c1 -29 -3 -53 -9 -53 -5 0 -10 11 -10
24 0 14 -4 28 -10 31 -13 8 -13 41 2 68 11 21 11 21 19 2 4 -11 8 -44 8 -72z
m2613 45 c-7 -7 -12 -8 -12 -2 0 14 12 26 19 19 2 -3 -1 -11 -7 -17z m-2612
-198 c0 -11 -4 -20 -10 -20 -5 0 -10 9 -10 20 0 11 5 20 10 20 6 0 10 -9 10
-20z m0 -132 c0 -49 -5 -47 -14 5 -4 23 -3 37 4 37 5 0 10 -19 10 -42z m2111
-46 c6 -16 5 -22 -6 -22 -8 0 -15 4 -15 9 0 5 -3 17 -7 27 -4 11 -2 15 7 12 7
-2 17 -14 21 -26z m-971 -63 c0 -47 -1 -49 -20 -37 -22 14 -28 66 -8 86 19 19
28 3 28 -49z m-1140 -50 c0 -11 -4 -17 -10 -14 -5 3 -10 13 -10 21 0 8 5 14
10 14 6 0 10 -9 10 -21z m1727 -85 c-3 -3 -12 -4 -19 -1 -8 3 -5 6 6 6 11 1
17 -2 13 -5z m-682 -416 c3 -177 7 -440 10 -583 5 -200 3 -268 -7 -290 l-12
-30 -4 43 c-2 33 -7 42 -22 42 -19 0 -34 25 -25 41 3 4 -3 14 -14 21 -15 9
-17 15 -9 25 7 9 7 13 -1 13 -14 0 -40 51 -34 68 6 17 44 15 70 -3 20 -14 22
-14 27 2 3 10 2 32 -3 48 -5 17 -10 23 -11 15 -1 -11 -4 -10 -9 4 -8 20 -13
22 -96 36 -74 12 -101 25 -141 70 -20 22 -44 40 -53 40 -20 0 -36 24 -46 69
-7 31 -6 33 16 26 13 -4 62 -27 109 -53 47 -25 101 -46 120 -48 19 -1 47 -5
61 -9 21 -5 27 -2 37 19 6 14 8 26 4 26 -4 0 -13 12 -20 28 -11 24 -10 29 8
44 11 9 20 20 20 24 0 4 -21 27 -47 51 -44 39 -48 47 -47 86 1 23 3 48 5 56 2
8 -17 24 -46 41 -45 24 -72 60 -46 60 6 0 11 -4 11 -9 0 -5 10 -11 23 -14 20
-5 20 -5 5 7 -10 7 -18 16 -18 19 0 10 94 -3 105 -14 12 -12 35 -11 35 2 0 5
-4 7 -10 4 -14 -9 -13 48 2 63 21 21 13 144 -13 198 -8 16 -5 30 18 66 19 32
30 42 35 33 5 -7 10 -159 13 -337z m-295 312 c0 -5 -4 -10 -10 -10 -5 0 -10 5
-10 10 0 6 5 10 10 10 6 0 10 -4 10 -10z m-463 -141 c45 -28 78 -96 69 -144
-4 -18 -22 -53 -41 -78 -63 -83 -158 -95 -234 -31 -44 37 -75 175 -48 214 26
37 71 65 116 70 54 7 89 -1 138 -31z m853 -10 c0 -5 -7 -6 -15 -3 -8 4 -15 13
-15 21 0 13 3 13 15 3 8 -7 15 -16 15 -21z m828 -4 c-3 -3 -9 2 -12 12 -6 14
-5 15 5 6 7 -7 10 -15 7 -18z m41 -24 c7 -5 12 -14 10 -20 -3 -7 -11 -3 -21 9
-18 21 -13 26 11 11z m-2009 -202 c0 -17 -4 -28 -10 -24 -5 3 -10 17 -10 31 0
13 5 24 10 24 6 0 10 -14 10 -31z m1139 -18 c11 -11 17 -22 14 -25 -9 -9 -43
14 -43 29 0 20 6 19 29 -4z m28 -104 c-2 -7 -1 -19 4 -28 6 -11 2 -22 -10 -33
-17 -15 -19 -15 -32 0 -18 22 -17 87 1 108 13 16 15 15 27 -9 8 -14 12 -32 10
-38z m-1167 1 c0 -18 -2 -20 -9 -8 -6 8 -7 18 -5 22 9 14 14 9 14 -14z m2195
2 c4 -6 -10 -10 -34 -10 -23 0 -41 5 -41 10 0 6 15 10 34 10 19 0 38 -4 41
-10z m-2038 -55 c28 0 38 -5 41 -17 2 -13 -3 -18 -17 -18 -14 0 -21 -6 -21
-19 0 -13 -7 -18 -24 -18 -28 0 -42 23 -50 82 l-5 40 19 -25 c14 -19 28 -25
57 -25z m-138 -53 c7 -34 8 -60 2 -70 -11 -19 -8 -23 -35 57 -11 33 -12 49 -3
68 13 29 20 19 36 -55z m2131 -72 c0 -5 -2 -10 -4 -10 -3 0 -8 5 -11 10 -3 6
-1 10 4 10 6 0 11 -4 11 -10z m56 -38 c-10 -2 -22 0 -28 6 -6 6 0 7 19 4 21
-5 23 -7 9 -10z m-1031 -51 c10 -17 -31 -33 -44 -17 -6 7 -8 16 -4 19 10 10
41 8 48 -2z m-25 -132 c0 -17 -4 -28 -10 -24 -5 3 -10 17 -10 31 0 13 5 24 10
24 6 0 10 -14 10 -31z m10 -124 c9 -11 10 -19 3 -26 -6 -6 -13 -1 -21 16 -13
28 -2 34 18 10z m8 -119 c3 -53 -11 -66 -33 -32 -16 23 -15 27 2 50 10 14 20
26 23 26 3 0 6 -20 8 -44z m789 -48 c-3 -8 -6 -5 -6 6 -1 11 2 17 5 13 3 -3 4
-12 1 -19z m1821 -13 c9 -8 -39 -24 -86 -31 -44 -5 -53 -4 -58 11 -4 9 -1 20
6 25 11 7 130 2 138 -5z m-2880 -12 c15 -10 42 -33 60 -50 21 -22 42 -33 61
-33 25 0 27 -3 23 -30 -4 -30 -8 -32 -47 -33 -52 -1 -65 4 -65 21 0 20 -31 52
-67 71 -31 16 -31 71 -1 71 5 0 21 -8 36 -17z m266 -89 c4 -10 1 -14 -6 -12
-15 5 -23 28 -10 28 5 0 13 -7 16 -16z m-152 -106 c-9 -9 -12 -7 -12 12 0 19
3 21 12 12 9 -9 9 -15 0 -24z m28 -84 c0 -8 -5 -12 -10 -9 -6 4 -8 11 -5 16 9
14 15 11 15 -7z m-70 -20 c0 -3 -6 -12 -14 -20 -16 -15 -32 -2 -21 16 7 11 35
14 35 4z m8 -1176 c4 -21 -27 -25 -46 -6 -20 20 -14 30 15 26 17 -2 29 -10 31
-20z m-721 -419 c89 -33 139 -154 98 -236 -20 -41 -63 -82 -92 -89 -39 -10
-113 2 -142 23 -33 25 -81 117 -88 171 -5 34 -1 48 20 75 45 60 132 84 204 56z
m2163 -59 c0 -5 -5 -10 -11 -10 -5 0 -7 5 -4 10 3 6 8 10 11 10 2 0 4 -4 4
-10z m-220 -25 c13 -14 29 -25 35 -25 7 0 20 -9 30 -20 18 -20 18 -20 -16 -14
-43 9 -49 14 -18 15 21 1 20 2 -6 8 -16 4 -36 3 -42 -2 -9 -7 -13 -4 -13 7 0
9 -7 19 -15 22 -8 4 -15 12 -15 20 0 22 35 16 60 -11z m570 -79 c0 -3 -4 -8
-10 -11 -5 -3 -10 -1 -10 4 0 6 5 11 10 11 6 0 10 -2 10 -4z m-960 -80 c0 -8
13 -24 30 -37 16 -13 30 -29 30 -36 0 -6 9 -15 20 -18 22 -7 24 -13 11 -34
-12 -19 -59 0 -84 35 -19 26 -33 119 -16 109 5 -4 9 -12 9 -19z m-1777 -55
c-2 -58 -17 -57 -28 2 -7 35 -6 39 11 35 14 -3 19 -12 17 -37z m95 -51 c6 0
14 -4 17 -10 3 -5 -1 -10 -9 -10 -18 0 -46 27 -46 43 0 7 7 4 14 -5 7 -10 18
-18 24 -18z m82 -46 c0 -8 7 -17 15 -20 8 -4 12 -11 8 -18 -5 -8 -3 -8 8 0 8
6 26 14 42 18 22 5 27 3 27 -13 0 -11 -4 -22 -10 -26 -6 -4 -6 -15 0 -31 6
-14 10 -38 10 -54 0 -21 6 -31 22 -36 23 -7 57 -42 58 -58 0 -5 7 -17 16 -27
15 -16 14 -19 -3 -38 l-20 -21 -52 51 c-38 38 -50 57 -45 71 3 11 -2 36 -12
56 -26 56 -54 70 -54 27 0 -33 -30 -46 -44 -20 -6 10 -20 28 -32 39 -23 23
-44 59 -44 74 0 6 14 19 31 29 33 22 79 19 79 -3z m-161 -51 c8 -27 -1 -65
-12 -53 -21 23 -34 68 -25 84 12 22 25 11 37 -31z m398 -25 c7 -6 13 -17 13
-25 0 -12 -7 -13 -27 -8 -35 8 -53 23 -53 42 0 12 7 13 27 8 16 -4 34 -11 40
-17z m134 -55 c9 -3 17 -15 17 -28 0 -13 7 -38 16 -56 10 -19 21 -58 26 -87 5
-29 16 -59 25 -68 8 -8 15 -26 15 -40 0 -15 6 -24 15 -24 8 0 14 -3 13 -7 -1
-5 10 -28 26 -52 30 -47 56 -113 56 -143 0 -10 7 -21 15 -24 10 -4 15 -21 15
-54 0 -30 5 -50 13 -53 24 -9 1 -15 -30 -9 -39 8 -113 76 -113 103 0 12 -13
27 -31 37 -18 10 -32 28 -36 45 -3 15 -14 32 -25 38 -13 7 -17 16 -13 30 7 21
-29 68 -52 69 -6 0 -9 9 -6 20 4 16 -1 23 -26 31 -27 10 -29 12 -15 26 13 14
17 14 33 -1 21 -19 31 -20 31 -4 0 6 6 19 14 27 14 16 9 50 -22 131 -3 8 -4
19 -3 23 1 5 -7 6 -18 2 -14 -4 -21 0 -26 15 -3 11 -14 20 -24 20 -18 0 -41
18 -41 32 0 15 51 8 56 -7 9 -24 44 -19 44 6 0 16 4 19 18 14 9 -4 24 -9 33
-12z m576 -15 c-3 -8 -6 -5 -6 6 -1 11 2 17 5 13 3 -3 4 -12 1 -19z m-157 2
c28 -15 38 -62 45 -200 3 -69 8 -152 10 -185 6 -70 -4 -155 -16 -155 -5 0 -18
9 -28 19 -11 11 -29 24 -40 31 -12 6 -21 19 -21 28 0 10 -4 22 -9 28 -14 15 6
54 29 54 17 0 20 6 20 39 0 23 -7 46 -16 56 -9 8 -13 23 -10 31 3 9 -1 25 -9
37 -19 28 -19 34 4 40 14 3 17 11 14 30 -3 15 -11 32 -19 38 -8 6 -14 21 -14
33 0 12 -4 26 -9 32 -5 5 -5 19 0 32 9 24 38 29 69 12z m-931 -64 c14 -56 14
-96 1 -96 -5 0 -10 11 -10 24 0 14 -4 28 -10 31 -5 3 -10 26 -10 51 0 55 14
50 29 -10z m116 33 c26 -5 53 -93 35 -115 -15 -18 -44 -18 -59 -1 -6 8 -13 31
-17 53 -3 21 -8 43 -11 47 -3 4 1 15 8 23 7 8 15 11 18 6 3 -5 15 -11 26 -13z
m972 -81 c-3 -7 -5 -2 -5 12 0 14 2 19 5 13 2 -7 2 -19 0 -25z m-1073 -153 c3
-8 1 -15 -4 -15 -6 0 -10 7 -10 15 0 8 2 15 4 15 2 0 6 -7 10 -15z m2173 -107
c2 -78 -6 -99 -31 -79 -10 8 -12 22 -7 44 4 18 4 45 0 60 -10 36 -1 59 20 55
13 -3 16 -18 18 -80z m-2153 26 c11 -29 7 -74 -7 -74 -21 0 -39 47 -27 71 13
23 26 24 34 3z m96 1 c14 -16 6 -65 -10 -65 -6 0 -15 12 -21 27 -17 44 4 70
31 38z m2628 -58 c7 -5 11 -11 9 -13 -7 -7 -67 18 -67 28 0 11 38 1 58 -15z
m-33 -27 c-3 -5 -13 -10 -21 -10 -8 0 -12 5 -9 10 3 6 13 10 21 10 8 0 12 -4
9 -10z m-2676 -85 l0 -40 -18 40 c-14 30 -16 45 -8 60 10 19 10 19 18 0 4 -11
8 -38 8 -60z m2689 57 c-9 -2 -19 -13 -21 -25 -3 -20 -4 -20 -11 -4 -9 20 21
50 39 39 6 -4 3 -8 -7 -10z m-2588 -27 c0 -19 -4 -35 -10 -35 -11 0 -13 30 -4
54 10 25 14 19 14 -19z m830 -181 c0 -55 -3 -75 -12 -72 -7 3 -16 22 -20 44
-5 21 -17 46 -28 56 -21 17 -28 34 -10 23 6 -3 10 -1 10 5 0 12 41 30 53 23 4
-2 7 -38 7 -79z m-913 -1 c4 -16 6 -34 4 -42 -1 -8 4 -51 13 -95 9 -45 18
-111 22 -148 3 -37 10 -70 15 -73 13 -9 11 -52 -3 -61 -22 -14 -38 27 -32 81
4 36 0 80 -14 141 -11 49 -20 103 -20 119 0 17 -3 47 -7 68 -9 44 10 53 22 10z
m1868 -3 c-3 -5 -17 -10 -31 -10 -14 0 -22 4 -19 10 3 6 17 10 31 10 14 0 22
-4 19 -10z m-1746 -13 c6 -8 13 -29 16 -48 l6 -34 -17 30 c-9 17 -23 34 -30
38 -8 4 -14 12 -14 17 0 15 26 12 39 -3z m1201 9 c0 -11 -19 -15 -25 -6 -3 5
1 10 9 10 9 0 16 -2 16 -4z m-13 -39 c-6 -19 -25 -19 -36 1 -9 17 -7 18 15 14
14 -2 23 -9 21 -15z m145 -9 c20 -19 48 -68 48 -83 0 -2 -8 -6 -17 -8 -12 -3
-8 -5 9 -6 36 -1 47 -21 12 -21 -21 0 -24 -3 -15 -14 9 -11 3 -14 -31 -19 -32
-4 -45 -2 -51 9 -5 9 -16 13 -28 9 -15 -5 -22 -1 -26 14 -3 12 -9 21 -13 21
-4 0 -7 10 -7 23 1 12 -2 34 -6 50 -6 21 -4 27 8 27 8 0 15 -9 15 -20 0 -11 5
-20 10 -20 6 0 10 14 10 30 0 27 3 30 29 30 17 0 40 -10 53 -22z m118 -72 c0
-9 -30 -14 -35 -6 -4 6 3 10 14 10 12 0 21 -2 21 -4z m-675 -96 c3 -5 0 -10
-7 -11 -10 0 -10 -2 0 -6 13 -5 17 -43 4 -43 -15 0 -32 24 -32 47 0 23 23 32
35 13z m1131 -82 c-23 -13 -40 0 -25 18 9 11 15 12 26 2 12 -10 12 -13 -1 -20z"/>
<path d="M2060 6070 c0 -5 5 -10 11 -10 8 0 7 -5 -1 -15 -17 -20 -5 -32 15
-15 11 9 12 17 4 31 -10 20 -29 26 -29 9z"/>
<path d="M1330 4056 c0 -9 30 -14 35 -6 4 6 -3 10 -14 10 -12 0 -21 -2 -21 -4z"/>
<path d="M720 4578 c-28 -28 -31 -37 -27 -71 12 -89 98 -158 158 -127 87 47
106 87 72 157 -22 47 -66 73 -125 73 -39 0 -52 -5 -78 -32z m115 -8 c18 -8 17
-9 -7 -9 -15 -1 -30 4 -33 9 -7 12 12 12 40 0z m67 -65 c3 -13 1 -22 -3 -19
-9 5 -13 44 -5 44 2 0 6 -11 8 -25z"/>
<path d="M800 1602 c-24 -8 -58 -52 -64 -84 -12 -59 43 -127 102 -128 40 0 87
43 97 90 15 68 -68 144 -135 122z m77 -38 c27 -20 33 -32 33 -62 0 -27 -3 -33
-12 -24 -9 9 -14 7 -23 -5 -11 -15 -13 -15 -19 5 -4 12 -11 22 -15 22 -5 0
-11 14 -14 30 -4 18 -13 30 -22 30 -21 0 -19 17 3 23 31 8 35 7 69 -19z"/>
<path d="M1200 825 c0 -8 7 -15 15 -15 8 0 15 7 15 15 0 8 -7 15 -15 15 -8 0
-15 -7 -15 -15z"/>
<path d="M1708 7533 c6 -2 18 -2 25 0 6 3 1 5 -13 5 -14 0 -19 -2 -12 -5z"/>
<path d="M2070 7524 c0 -18 38 -24 51 -8 16 19 40 17 67 -5 27 -24 28 -41 2
-41 -11 0 -20 -4 -20 -10 0 -5 9 -10 20 -10 11 0 20 -4 20 -10 0 -5 -7 -10
-16 -10 -8 0 -13 -4 -9 -10 3 -5 21 -1 41 11 20 11 44 17 55 14 13 -4 19 -2
19 9 0 19 -46 22 -53 4 -3 -10 -7 -10 -17 -1 -9 9 -7 14 9 23 12 6 29 10 39 8
9 -1 24 2 32 7 13 7 13 6 2 -7 -8 -10 -9 -18 -3 -22 14 -9 2 -36 -16 -36 -10
0 -13 -6 -9 -17 8 -19 -9 -33 -44 -33 -22 -1 -23 -2 -7 -11 10 -6 32 -7 50 -4
l32 7 -23 -17 c-13 -9 -31 -15 -42 -12 -10 2 -24 0 -31 -5 -12 -7 -11 -9 1 -7
45 5 37 -5 -10 -11 -30 -5 -56 -8 -57 -7 -1 1 -4 13 -8 27 -5 23 -2 27 32 40
30 11 34 15 18 18 -11 2 -27 11 -37 19 -11 10 -18 11 -23 4 -3 -6 1 -14 9 -17
9 -3 13 -10 10 -16 -3 -5 -12 -7 -20 -4 -9 3 -14 -1 -14 -14 0 -10 -8 -20 -17
-22 -16 -3 -15 -6 5 -26 12 -12 20 -28 16 -33 -4 -8 -9 -7 -14 1 -10 16 -57
22 -65 9 -4 -5 5 -9 19 -9 13 0 26 -5 28 -12 3 -8 32 -13 84 -13 43 -1 92 -5
108 -10 21 -6 27 -5 22 3 -4 7 -2 20 3 31 9 17 8 18 -12 14 -12 -3 -27 -9 -32
-14 -18 -13 -115 -17 -115 -3 0 10 40 19 138 29 32 3 58 15 34 15 -7 0 -12 5
-12 11 0 6 9 8 20 4 20 -6 28 9 10 20 -15 9 -12 25 6 25 8 0 12 5 9 10 -4 6
-15 8 -25 5 -18 -6 -18 -4 -4 24 9 17 13 40 9 50 -3 11 -1 22 5 26 9 5 14 -20
13 -62 -1 -7 3 -13 8 -13 5 0 9 4 9 10 0 5 13 7 30 4 20 -4 30 -2 30 5 0 7 -8
11 -17 10 -29 -2 -43 0 -43 9 0 4 12 9 27 10 31 2 57 22 29 22 -13 0 -16 5
-11 19 6 19 1 20 -64 19 -39 0 -68 -4 -66 -9 3 -4 -8 -15 -24 -24 -18 -9 -32
-11 -36 -5 -3 5 6 12 20 16 57 14 21 25 -75 22 -68 -1 -100 -6 -100 -14z"/>
<path d="M3914 7503 c28 -77 58 -140 98 -203 66 -104 93 -145 99 -150 3 -3 9
-13 12 -23 4 -11 16 -21 27 -24 12 -3 20 -14 21 -27 0 -19 1 -19 10 4 7 17 12
21 18 12 4 -7 17 -14 28 -15 12 0 19 -6 17 -12 -3 -6 21 -23 52 -38 47 -23 64
-27 101 -21 29 4 40 9 32 15 -7 4 -11 11 -8 14 8 7 59 -16 59 -27 0 -14 18 -9
37 11 27 28 108 34 150 10 43 -24 53 -24 53 1 0 25 26 16 33 -11 5 -17 11 -19
39 -15 18 3 51 12 73 20 48 18 75 20 75 6 0 -22 44 -28 68 -10 12 10 31 16 41
13 10 -3 22 0 25 5 3 6 15 8 26 5 26 -7 72 5 65 16 -3 5 4 7 15 4 13 -4 20 0
20 10 0 18 27 30 35 17 8 -13 45 -13 45 0 0 11 166 7 177 -4 9 -9 43 24 43 41
0 11 25 14 133 12 123 -1 136 1 189 25 31 14 63 26 70 26 7 0 22 7 32 15 15
11 23 12 33 4 10 -9 19 -6 38 15 30 33 75 52 85 35 6 -8 9 -8 15 1 4 6 14 9
23 5 8 -3 18 -2 21 3 9 12 159 42 214 42 26 0 47 4 47 9 0 5 14 14 30 20 17 5
30 15 30 20 0 6 18 11 39 11 22 0 41 5 43 10 2 6 58 11 138 12 74 0 140 5 147
10 7 5 14 5 18 -2 11 -18 35 -11 35 10 0 22 15 27 23 8 4 -10 7 -10 15 0 7 10
11 10 22 -2 11 -14 15 -13 34 11 11 15 21 32 21 38 0 5 17 11 39 12 44 3 86
26 86 48 0 13 -197 15 -1610 15 l-1609 0 13 -37z m3026 -53 c0 -5 -5 -10 -11
-10 -5 0 -7 5 -4 10 3 6 8 10 11 10 2 0 4 -4 4 -10z m-2307 -387 c-7 -2 -19
-2 -25 0 -7 3 -2 5 12 5 14 0 19 -2 13 -5z"/>
<path d="M7152 7528 c6 -18 28 -21 28 -4 0 9 -7 16 -16 16 -9 0 -14 -5 -12
-12z"/>
<path d="M8008 7533 c7 -3 16 -2 19 1 4 3 -2 6 -13 5 -11 0 -14 -3 -6 -6z"/>
<path d="M8178 7495 c-2 -29 1 -45 8 -45 7 0 9 11 7 28 -4 21 -2 24 6 12 8
-12 11 -8 11 18 0 52 -27 41 -32 -13z"/>
<path d="M8239 7496 c-3 -32 -1 -42 9 -39 19 8 19 -46 0 -84 -8 -17 -7 -25 7
-39 14 -14 18 -15 25 -4 7 11 14 11 34 2 14 -6 26 -16 26 -22 0 -15 26 -12 39
4 10 12 9 20 -4 40 -17 25 -16 26 9 36 17 6 26 16 24 27 -5 29 31 28 42 -1 18
-47 50 -23 50 37 0 37 2 39 26 34 20 -3 28 0 31 13 3 10 19 22 36 28 24 7 -14
10 -159 11 l-192 1 -3 -44z m61 -95 c0 -11 -4 -23 -10 -26 -6 -4 -10 5 -10 19
0 14 5 26 10 26 6 0 10 -9 10 -19z"/>
<path d="M8647 7533 c-4 -3 -7 -15 -7 -25 0 -13 8 -18 30 -18 25 0 30 4 30 25
0 20 -5 25 -23 25 -13 0 -27 -3 -30 -7z"/>
<path d="M8720 7525 c0 -28 74 -49 82 -23 4 10 15 10 55 0 54 -14 103 -2 103
25 0 10 -26 13 -120 13 -99 0 -120 -3 -120 -15z"/>
<path d="M9678 7533 c7 -3 16 -2 19 1 4 3 -2 6 -13 5 -11 0 -14 -3 -6 -6z"/>
<path d="M9724 7523 c4 -9 1 -20 -6 -24 -8 -5 -3 -10 14 -14 14 -4 28 -15 31
-24 3 -12 18 -21 41 -25 38 -7 50 -26 17 -26 -14 0 -19 -6 -18 -21 1 -16 7
-19 24 -16 29 5 30 -1 1 -13 l-23 -9 22 0 c12 -1 29 -4 39 -8 14 -5 16 -2 12
15 -4 12 -2 22 3 22 5 0 12 -12 15 -27 4 -16 12 -31 18 -35 21 -14 63 -8 86
12 13 11 37 20 56 20 34 0 36 6 19 60 -8 25 7 32 79 35 140 5 126 -1 126 50
l0 45 -281 0 c-259 0 -281 -1 -275 -17z m516 -19 c0 -8 -5 -12 -10 -9 -6 4 -8
11 -5 16 9 14 15 11 15 -7z"/>
<path d="M11400 7497 c0 -34 -6 -48 -25 -65 -16 -14 -25 -32 -25 -50 0 -33
-16 -52 -43 -52 -13 0 -17 -5 -13 -15 3 -8 0 -26 -6 -40 -11 -25 -28 -34 -28
-14 0 6 -9 8 -20 4 -13 -4 -22 -1 -26 9 -5 12 -10 13 -25 5 -23 -12 -25 -29
-4 -29 8 0 15 -5 15 -11 0 -5 -5 -7 -12 -3 -6 4 -17 -1 -25 -12 -18 -24 -147
-38 -178 -19 -16 10 -22 9 -36 -9 -14 -17 -20 -18 -30 -9 -10 10 -20 8 -46 -8
-25 -16 -42 -19 -69 -15 -32 7 -35 5 -49 -28 -15 -34 -35 -56 -35 -37 0 16
-62 -21 -67 -40 -4 -15 -15 -19 -49 -19 -46 0 -60 -15 -21 -23 l22 -4 -22 -8
c-26 -8 -31 -25 -8 -25 17 0 20 -11 6 -26 -13 -13 -22 -194 -10 -194 5 0 14
-10 19 -22 5 -14 9 -17 10 -8 1 33 20 -15 20 -53 0 -21 3 -36 8 -34 4 2 21 -2
37 -9 24 -10 26 -13 10 -14 -19 -1 -19 -2 3 -12 12 -6 23 -16 23 -22 1 -6 2
-18 3 -26 0 -8 11 -16 22 -18 14 -2 24 -14 30 -34 7 -23 16 -31 37 -34 15 -1
36 -5 46 -9 11 -3 22 -1 26 5 3 6 10 8 15 5 5 -3 20 -1 34 5 29 11 126 -5 126
-21 0 -5 5 -9 10 -9 6 0 10 7 10 15 0 16 40 13 92 -7 16 -6 37 -8 49 -5 14 4
29 -2 46 -19 31 -31 36 -30 30 4 -2 15 -2 22 0 15 2 -6 28 -15 56 -19 29 -4
46 -9 40 -11 -27 -9 -11 -23 25 -23 41 0 62 -14 62 -42 0 -13 8 -18 25 -18 17
0 25 -6 26 -17 0 -16 1 -15 8 1 7 18 8 18 14 -5 4 -13 7 -35 7 -49 0 -15 5
-31 11 -37 7 -7 11 -38 9 -75 -4 -122 0 -112 -55 -125 -42 -9 -46 -12 -27 -18
12 -4 22 -11 22 -15 0 -4 -10 -11 -22 -14 -20 -6 -21 -8 -5 -14 16 -7 16 -8
-2 -24 -11 -9 -22 -36 -26 -61 -6 -40 -10 -46 -38 -52 -18 -4 -26 -9 -19 -12
17 -7 5 -23 -18 -23 -14 0 -19 -9 -22 -47 -2 -27 0 -50 4 -51 22 -9 68 -55 68
-68 0 -8 4 -14 10 -14 5 0 15 -18 21 -40 7 -22 18 -40 26 -40 7 0 13 -4 13
-10 0 -5 13 -10 29 -10 16 0 31 -6 35 -15 3 -8 13 -15 23 -15 17 -1 76 -29 61
-30 -11 0 27 -65 38 -66 5 0 17 -4 27 -7 9 -4 24 -9 32 -12 18 -5 20 -45 3
-45 -30 0 14 -20 94 -43 60 -17 89 -21 92 -13 2 6 5 0 5 -13 1 -13 4 -22 7
-18 3 3 16 2 29 -3 22 -8 22 -8 29 112 3 67 6 586 6 1155 l0 1033 -300 0 -300
0 0 -43z m-763 -829 c-3 -8 -6 -5 -6 6 -1 11 2 17 5 13 3 -3 4 -12 1 -19z"/>
<path d="M1925 7510 c3 -5 10 -10 16 -10 5 0 9 5 9 10 0 6 -7 10 -16 10 -8 0
-12 -4 -9 -10z"/>
<path d="M1688 7503 c7 -3 16 -2 19 1 4 3 -2 6 -13 5 -11 0 -14 -3 -6 -6z"/>
<path d="M1858 7503 c7 -3 16 -2 19 1 4 3 -2 6 -13 5 -11 0 -14 -3 -6 -6z"/>
<path d="M2025 7500 c3 -5 13 -10 21 -10 8 0 12 5 9 10 -3 6 -13 10 -21 10 -8
0 -12 -4 -9 -10z"/>
<path d="M2140 7500 c0 -6 7 -10 15 -10 8 0 15 2 15 4 0 2 -7 6 -15 10 -8 3
-15 1 -15 -4z"/>
<path d="M680 7491 c0 -5 9 -7 20 -4 11 3 20 7 20 9 0 2 -9 4 -20 4 -11 0 -20
-4 -20 -9z"/>
<path d="M2086 7491 c-9 -14 33 -56 45 -44 6 6 0 18 -15 32 -15 14 -26 18 -30
12z"/>
<path d="M757 7455 c15 -19 29 -32 31 -30 6 5 -40 65 -50 65 -5 0 4 -16 19
-35z"/>
<path d="M1890 7480 c0 -5 7 -10 16 -10 8 0 12 5 9 10 -3 6 -10 10 -16 10 -5
0 -9 -4 -9 -10z"/>
<path d="M1935 7470 c3 -5 8 -10 11 -10 2 0 4 5 4 10 0 6 -5 10 -11 10 -5 0
-7 -4 -4 -10z"/>
<path d="M1989 7459 c-6 -13 -6 -19 1 -19 5 0 10 3 10 8 0 4 13 7 29 8 21 1
31 -4 35 -18 4 -17 7 -18 19 -7 12 12 11 15 -8 25 -42 22 -75 23 -86 3z"/>
<path d="M641 7407 c-1 -54 2 -62 33 -93 33 -33 57 -41 90 -28 29 11 19 36
-13 32 -30 -3 -75 27 -66 43 3 4 -1 12 -9 16 -9 5 -20 26 -25 48 l-9 40 -1
-58z"/>
<path d="M8066 7441 c-3 -5 1 -11 9 -14 9 -4 12 -1 8 9 -6 16 -10 17 -17 5z"/>
<path d="M2003 7423 c-13 -2 -23 -9 -23 -15 0 -6 10 -8 26 -4 33 9 28 -13 -7
-31 -13 -7 -22 -13 -19 -14 3 0 13 -2 23 -4 10 -2 23 5 30 16 13 21 52 26 63
7 5 -8 11 -2 16 17 9 35 2 45 -15 22 -11 -15 -15 -15 -41 -2 -15 8 -29 14 -30
14 0 -1 -11 -4 -23 -6z"/>
<path d="M2225 7410 c-4 -6 5 -10 20 -10 15 0 24 4 20 10 -3 6 -12 10 -20 10
-8 0 -17 -4 -20 -10z"/>
<path d="M2380 7408 c0 -4 4 -8 9 -8 6 0 12 4 15 8 3 5 -1 9 -9 9 -8 0 -15 -4
-15 -9z"/>
<path d="M1663 7393 c9 -2 23 -2 30 0 6 3 -1 5 -18 5 -16 0 -22 -2 -12 -5z"/>
<path d="M1729 7387 c-1 -7 -1 -16 0 -21 1 -5 -4 -13 -11 -18 -10 -6 -10 -10
2 -18 12 -8 12 -10 -5 -10 -18 -1 -17 -2 5 -15 l25 -14 -27 -1 c-35 0 -59 -10
-52 -21 3 -5 21 -9 40 -9 21 0 33 -4 29 -10 -3 -5 -20 -10 -37 -10 -45 0 -31
-6 28 -13 49 -5 52 -4 57 19 2 13 1 24 -4 24 -4 0 -8 9 -8 20 -1 11 -1 29 -2
40 0 11 -4 20 -9 20 -4 0 -6 8 -3 19 3 11 -2 21 -11 24 -9 4 -17 1 -17 -6z"/>
<path d="M2176 7357 c-17 -13 -18 -14 -2 -20 10 -4 15 -3 11 3 -3 6 3 10 15
10 12 0 18 5 15 10 -8 13 -18 13 -39 -3z"/>
<path d="M1870 7350 c0 -5 7 -10 16 -10 8 0 12 5 9 10 -3 6 -10 10 -16 10 -5
0 -9 -4 -9 -10z"/>
<path d="M2045 7350 c-3 -5 1 -10 9 -10 8 0 18 5 21 10 3 6 -1 10 -9 10 -8 0
-18 -4 -21 -10z"/>
<path d="M1999 7319 c11 -12 25 -18 31 -14 8 5 6 11 -7 21 -29 22 -47 17 -24
-7z"/>
<path d="M3020 7262 c0 -5 9 -12 21 -15 13 -3 19 -1 16 6 -5 15 -37 22 -37 9z"/>
<path d="M1620 7234 c0 -8 5 -12 10 -9 6 4 8 11 5 16 -9 14 -15 11 -15 -7z"/>
<path d="M2214 7240 c-31 -12 -22 -56 12 -55 25 0 30 19 5 20 -8 0 -16 6 -18
13 -3 7 5 12 21 12 14 0 26 5 26 10 0 12 -17 12 -46 0z"/>
<path d="M1810 7220 c0 -11 5 -20 10 -20 6 0 10 9 10 20 0 11 -4 20 -10 20 -5
0 -10 -9 -10 -20z"/>
<path d="M8241 7228 c3 -29 -2 -49 -11 -43 -6 3 -26 1 -45 -6 -28 -11 -39 -10
-61 2 -15 8 -49 14 -76 14 -26 0 -48 3 -48 8 0 4 -7 7 -15 7 -8 0 -15 5 -15
10 0 6 -6 10 -14 10 -16 0 -31 -34 -22 -48 3 -5 -4 -19 -15 -30 -16 -18 -19
-34 -18 -92 1 -38 6 -70 11 -70 5 0 7 -4 3 -9 -6 -10 100 -7 180 4 34 5 83 6
133 2 11 0 16 -11 10 -20 -2 -2 3 -11 10 -19 10 -13 20 -14 54 -5 34 8 38 12
22 18 -17 7 -17 8 4 8 15 1 22 7 22 20 0 11 3 27 6 36 5 11 0 18 -15 22 -20 5
-19 7 14 35 36 32 46 58 21 58 -9 0 -16 12 -18 27 -2 17 -12 32 -28 40 -14 7
-20 13 -15 13 6 0 3 5 -5 10 -22 14 -71 12 -69 -2z"/>
<path d="M1910 7219 c0 -5 5 -7 10 -4 6 3 10 8 10 11 0 2 -4 4 -10 4 -5 0 -10
-5 -10 -11z"/>
<path d="M2145 7220 c-3 -5 3 -10 15 -10 12 0 18 5 15 10 -3 6 -10 10 -15 10
-5 0 -12 -4 -15 -10z"/>
<path d="M8208 7223 c7 -3 16 -2 19 1 4 3 -2 6 -13 5 -11 0 -14 -3 -6 -6z"/>
<path d="M2325 7210 c-4 -6 -11 -8 -16 -5 -5 4 -9 1 -9 -4 0 -16 16 -13 30 4
7 8 10 15 7 15 -3 0 -9 -5 -12 -10z"/>
<path d="M1865 7190 c-3 -5 -2 -10 4 -10 5 0 13 5 16 10 3 6 2 10 -4 10 -5 0
-13 -4 -16 -10z"/>
<path d="M2371 7184 c0 -11 3 -14 6 -6 3 7 2 16 -1 19 -3 4 -6 -2 -5 -13z"/>
<path d="M2283 7173 c-7 -3 -13 -9 -13 -15 0 -6 15 -7 40 -3 38 6 57 -6 28
-18 -7 -3 2 -6 20 -6 17 -1 32 4 32 10 0 5 -4 8 -9 4 -6 -3 -15 3 -20 13 -10
18 -50 26 -78 15z"/>
<path d="M1820 7155 c0 -8 7 -15 15 -15 8 0 15 4 15 9 0 5 -7 11 -15 15 -9 3
-15 0 -15 -9z"/>
<path d="M2058 7146 c-27 -20 -22 -26 12 -15 17 6 30 15 30 20 0 13 -22 10
-42 -5z"/>
<path d="M2171 7146 c-19 -7 -37 -18 -39 -24 -5 -16 11 -15 26 0 9 9 15 9 24
0 9 -9 8 -12 -6 -12 -12 0 -16 -5 -13 -14 3 -8 2 -29 -3 -45 -10 -36 4 -42 21
-10 8 16 13 18 19 9 5 -8 10 -8 14 -2 3 6 14 9 24 7 9 -2 19 -4 21 -4 3 -1 -4
-7 -14 -15 -10 -7 -26 -12 -34 -10 -9 2 -27 -5 -41 -15 l-24 -19 24 -20 c14
-11 30 -17 35 -13 23 19 64 21 80 5 20 -20 29 -13 20 16 -6 19 -13 21 -43 17
-21 -3 -48 -8 -62 -13 -22 -7 -24 -6 -12 9 20 24 94 32 130 15 23 -12 32 -12
45 -3 19 13 23 35 7 35 -5 0 -10 -4 -10 -8 0 -11 -39 -12 -45 -1 -4 5 -13 9
-21 9 -24 0 -54 38 -54 70 0 17 5 30 11 30 5 0 7 5 3 11 -12 20 -29 -10 -25
-46 1 -20 -2 -35 -8 -35 -11 0 -16 26 -12 68 1 12 0 22 -1 21 -2 0 -18 -6 -37
-13z"/>
<path d="M1640 7135 c0 -8 7 -15 16 -15 14 0 14 3 4 15 -7 8 -14 15 -16 15 -2
0 -4 -7 -4 -15z"/>
<path d="M8400 7120 c0 -11 2 -20 4 -20 2 0 6 9 9 20 3 11 1 20 -4 20 -5 0 -9
-9 -9 -20z"/>
<path d="M1865 7120 c-3 -5 3 -10 15 -10 12 0 18 5 15 10 -3 6 -10 10 -15 10
-5 0 -12 -4 -15 -10z"/>
<path d="M1978 7123 c6 -2 18 -2 25 0 6 3 1 5 -13 5 -14 0 -19 -2 -12 -5z"/>
<path d="M2268 7123 c-10 -2 -18 -8 -18 -13 0 -4 9 -6 20 -3 11 3 20 9 20 14
0 5 -1 8 -2 8 -2 -1 -11 -3 -20 -6z"/>
<path d="M2102 7090 c13 -21 48 -28 48 -10 0 6 -9 10 -20 10 -11 0 -20 5 -20
10 0 6 -5 10 -10 10 -6 0 -5 -8 2 -20z"/>
<path d="M1945 7090 c3 -5 10 -10 16 -10 5 0 9 5 9 10 0 6 -7 10 -16 10 -8 0
-12 -4 -9 -10z"/>
<path d="M2303 7093 c-13 -2 -23 -9 -23 -15 0 -6 12 -8 31 -4 17 3 38 6 45 6
8 0 14 5 14 10 0 10 -25 11 -67 3z"/>
<path d="M1180 7071 c-6 -12 -7 -21 -1 -21 10 0 24 30 17 37 -2 3 -9 -5 -16
-16z"/>
<path d="M3685 7080 c-3 -5 -3 -10 1 -10 3 0 -4 -8 -16 -18 -13 -10 -20 -25
-18 -33 4 -11 8 -9 14 6 4 11 16 26 26 33 19 14 24 32 9 32 -6 0 -13 -4 -16
-10z"/>
<path d="M2045 7071 c-6 -5 -21 -11 -35 -14 -14 -3 -2 -4 25 -3 28 0 49 6 48
11 -3 14 -26 18 -38 6z"/>
<path d="M1675 7060 c-4 -6 6 -10 22 -10 22 0 25 2 13 10 -19 12 -27 12 -35 0z"/>
<path d="M3057 7059 c7 -7 15 -10 18 -7 3 3 -2 9 -12 12 -14 6 -15 5 -6 -5z"/>
<path d="M2330 7050 c-13 -8 -12 -10 3 -10 9 0 17 5 17 10 0 12 -1 12 -20 0z"/>
<path d="M2055 7030 c-4 -6 6 -10 22 -10 22 0 25 2 13 10 -19 12 -27 12 -35 0z"/>
<path d="M3010 7030 c0 -5 14 -16 30 -25 39 -20 39 -5 0 17 -17 9 -30 13 -30
8z"/>
<path d="M1690 7020 c0 -5 5 -10 10 -10 6 0 10 5 10 10 0 6 -4 10 -10 10 -5 0
-10 -4 -10 -10z"/>
<path d="M2118 7013 c-2 -12 -13 -17 -38 -17 -22 -1 -34 -5 -32 -13 1 -7 -2
-13 -8 -13 -19 0 -10 -32 10 -37 21 -6 28 -23 9 -23 -11 0 -23 -11 -48 -43
-13 -17 -12 -18 15 -11 24 5 27 4 17 -7 -27 -28 -3 -33 66 -13 20 6 23 4 18
-9 -3 -9 -2 -19 4 -22 14 -9 1 -25 -22 -25 -10 0 -19 -5 -19 -11 0 -6 7 -9 15
-5 17 6 45 -2 45 -15 0 -4 -18 -7 -39 -6 -28 1 -41 6 -44 18 -3 12 -12 15 -36
11 -33 -5 -43 -22 -12 -22 26 0 36 -41 14 -57 -15 -12 -15 -13 0 -19 10 -3 17
-15 17 -25 0 -12 7 -19 20 -19 16 0 20 7 20 31 0 26 3 29 21 24 15 -5 19 -4
14 4 -4 7 -16 11 -28 9 -14 -2 -22 2 -22 12 0 11 10 14 40 12 39 -2 85 13 85
30 0 4 -6 8 -14 8 -16 0 -28 48 -14 56 11 7 68 -5 68 -15 0 -4 -10 -7 -22 -6
-13 0 -23 -4 -23 -10 0 -5 14 -9 30 -8 28 2 29 2 7 -7 -25 -10 -26 -30 -2 -38
7 -3 10 0 6 7 -5 8 2 11 21 9 69 -5 119 3 143 23 l25 20 -30 -6 c-28 -5 -30
-4 -32 29 -1 26 2 33 12 30 8 -3 20 -2 27 2 9 6 6 10 -11 14 -31 7 -40 30 -11
30 12 0 19 4 15 10 -3 5 -12 7 -20 3 -11 -4 -13 -1 -9 11 3 9 13 16 21 16 8 0
11 5 8 10 -5 8 -11 7 -20 0 -8 -7 -23 -9 -34 -5 -13 4 -23 0 -29 -11 -8 -14
-12 -14 -29 -3 -12 7 -19 19 -16 26 6 15 -18 18 -32 4 -6 -6 -44 -11 -85 -13
-60 -2 -74 0 -72 11 2 8 -3 18 -10 22 -14 9 7 13 45 10 9 -1 17 2 17 8 0 5 3
16 6 25 3 9 1 16 -4 16 -6 0 -12 -8 -14 -17z m102 -104 c0 -5 -26 -9 -57 -9
-35 -1 -66 -6 -77 -15 -11 -8 -26 -15 -33 -15 -24 0 -14 16 20 31 36 16 147
22 147 8z m111 -16 c-12 -8 -30 -11 -46 -7 -14 3 -25 2 -25 -4 0 -5 -33 -13
-72 -17 -40 -4 -80 -11 -88 -15 -8 -4 -21 -5 -29 -2 -23 8 59 32 124 37 33 2
61 9 63 14 2 6 14 8 27 5 12 -3 26 -1 29 5 4 5 13 8 22 4 12 -5 12 -8 -5 -20z
m9 -28 c0 -11 -40 -24 -57 -18 -15 6 -13 9 12 14 42 9 45 10 45 4z m-97 -22
c3 -5 -17 -8 -44 -8 -27 0 -49 3 -49 7 0 10 87 10 93 1z m97 -24 c0 -5 -4 -9
-10 -9 -5 0 -10 7 -10 16 0 8 5 12 10 9 6 -3 10 -10 10 -16z m-55 -9 c3 -5 -3
-10 -15 -10 -12 0 -18 5 -15 10 3 6 10 10 15 10 5 0 12 -4 15 -10z m65 -29 c0
-12 -48 -23 -63 -14 -8 5 -3 10 13 14 36 10 50 10 50 0z"/>
<path d="M2385 6979 c-4 -6 -5 -12 -2 -15 2 -3 7 2 10 11 7 17 1 20 -8 4z"/>
<path d="M2105 6960 c-3 -5 1 -10 9 -10 9 0 16 5 16 10 0 6 -4 10 -9 10 -6 0
-13 -4 -16 -10z"/>
<path d="M1150 6950 c0 -5 5 -10 10 -10 6 0 10 5 10 10 0 6 -4 10 -10 10 -5 0
-10 -4 -10 -10z"/>
<path d="M1975 6930 c-3 -5 1 -10 9 -10 9 0 16 5 16 10 0 6 -4 10 -9 10 -6 0
-13 -4 -16 -10z"/>
<path d="M10537 6934 c-8 -8 1 -24 14 -24 5 0 9 7 9 15 0 15 -12 20 -23 9z"/>
<path d="M1855 6920 c3 -5 15 -10 26 -10 11 0 17 5 14 10 -3 6 -15 10 -26 10
-11 0 -17 -4 -14 -10z"/>
<path d="M1970 6820 c-13 -9 -13 -10 0 -10 8 0 22 5 30 10 13 9 13 10 0 10 -8
0 -22 -5 -30 -10z"/>
<path d="M703 6794 c-8 -21 13 -42 28 -27 13 13 5 43 -11 43 -6 0 -13 -7 -17
-16z"/>
<path d="M2008 6803 c-16 -2 -28 -9 -28 -14 0 -13 38 -10 80 6 l35 13 -30 0
c-16 -1 -42 -3 -57 -5z"/>
<path d="M3530 6791 c0 -26 16 -35 24 -15 10 25 7 34 -9 34 -8 0 -15 -9 -15
-19z"/>
<path d="M3600 6790 c0 -5 5 -10 10 -10 6 0 10 5 10 10 0 6 -4 10 -10 10 -5 0
-10 -4 -10 -10z"/>
<path d="M3640 6765 c0 -9 -4 -14 -9 -10 -5 3 -12 1 -16 -5 -3 -5 3 -10 13
-10 22 0 37 26 22 35 -6 4 -10 -1 -10 -10z"/>
<path d="M2360 6735 c-19 -7 -33 -14 -30 -15 23 -7 41 -7 46 1 3 5 14 9 24 9
10 0 22 5 25 10 8 14 -23 11 -65 -5z"/>
<path d="M2190 6715 c0 -8 -8 -14 -17 -12 -10 1 -18 -2 -18 -7 0 -5 10 -10 23
-11 12 0 22 3 22 7 0 4 10 8 21 8 18 0 19 2 9 15 -16 19 -40 19 -40 0z"/>
<path d="M2260 6721 c0 -5 10 -12 23 -15 21 -7 21 -7 2 -16 -18 -8 -17 -9 6
-9 22 -1 27 4 27 24 0 21 -5 25 -29 25 -16 0 -29 -4 -29 -9z"/>
<path d="M2366 6691 c-3 -4 6 -6 19 -3 14 2 25 6 25 8 0 8 -39 4 -44 -5z"/>
<path d="M3890 6676 c0 -37 10 -56 31 -56 20 0 26 31 13 64 -10 26 -44 20 -44
-8z"/>
<path d="M2204 6676 c-11 -8 -29 -14 -40 -13 -14 2 -20 -5 -22 -26 -3 -27 -2
-28 38 -25 27 1 44 -3 51 -13 14 -22 11 -39 -8 -40 -15 0 -15 -2 2 -8 11 -4
35 -4 55 0 19 4 36 6 39 4 2 -3 -10 -8 -27 -11 -18 -4 -32 -10 -32 -15 0 -13
61 -11 101 2 52 18 60 31 14 25 -36 -6 -38 -5 -15 6 l25 11 -35 7 c-20 4 -49
1 -67 -6 -31 -12 -33 -12 -33 7 0 17 6 20 38 19 20 -1 51 -1 67 0 29 1 29 2 7
11 -17 6 -22 14 -17 28 7 22 -27 35 -45 17 -8 -8 -13 -7 -20 4 -7 11 -12 12
-20 4 -14 -14 42 -40 62 -28 10 5 10 4 2 -5 -6 -7 -28 -14 -48 -15 -30 -3 -36
0 -38 18 -2 40 -3 45 -9 50 -3 3 -14 -1 -25 -8z m6 -41 c-10 -12 -16 -13 -26
-4 -18 15 -18 14 12 17 23 2 25 0 14 -13z"/>
<path d="M2335 6680 c3 -5 8 -10 11 -10 2 0 4 5 4 10 0 6 -5 10 -11 10 -5 0
-7 -4 -4 -10z"/>
<path d="M2105 6650 c3 -5 11 -10 16 -10 6 0 7 5 4 10 -3 6 -11 10 -16 10 -6
0 -7 -4 -4 -10z"/>
<path d="M2105 6620 c-3 -5 1 -10 10 -10 9 0 13 5 10 10 -3 6 -8 10 -10 10 -2
0 -7 -4 -10 -10z"/>
<path d="M2181 6591 c-11 -7 -11 -9 0 -14 12 -5 11 -7 -1 -16 -18 -12 -33 -4
-26 15 3 8 1 14 -3 14 -18 0 -41 -12 -41 -22 0 -6 6 -8 14 -5 19 8 28 -3 16
-19 -6 -6 -9 -17 -8 -24 2 -7 -7 -13 -19 -15 -13 -1 -26 -5 -30 -9 -5 -5 75
-3 96 3 2 1 -2 7 -8 15 -9 10 -8 15 1 19 20 8 52 67 36 67 -7 0 -19 -4 -27 -9z"/>
<path d="M1321 6566 c-9 -10 -9 -16 -1 -21 6 -4 9 -14 6 -22 -7 -18 32 -96 44
-88 6 4 10 27 10 52 0 32 5 50 18 59 16 12 15 13 -5 14 -13 0 -23 5 -23 10 0
15 -36 12 -49 -4z"/>
<path d="M1707 6546 c-5 -11 -1 -16 13 -16 11 0 20 -7 20 -15 0 -8 7 -15 16
-15 23 0 13 34 -11 39 -11 2 -23 8 -26 13 -3 5 -9 3 -12 -6z"/>
<path d="M1430 6532 c0 -18 14 -22 40 -12 3 1 9 2 13 1 5 -1 7 4 5 11 -3 7
-17 14 -31 16 -21 3 -27 -1 -27 -16z"/>
<path d="M2368 6522 c-16 -2 -28 -7 -28 -11 0 -4 -13 -8 -29 -8 -16 0 -43 -5
-60 -13 -25 -10 -29 -15 -20 -26 9 -11 8 -14 -2 -14 -8 0 -25 -3 -38 -7 -20
-5 -22 -3 -16 16 4 15 2 21 -9 21 -19 0 -30 -17 -14 -23 7 -3 0 -10 -17 -16
-25 -10 -31 -10 -42 5 -12 16 -13 16 -13 -4 0 -18 6 -22 35 -22 19 0 35 -5 35
-11 0 -7 -13 -9 -37 -5 -24 4 -33 3 -24 -2 11 -8 11 -11 0 -16 -8 -3 2 -4 21
-2 44 4 60 -1 53 -20 -3 -8 1 -14 9 -14 22 0 29 12 17 27 -9 10 -5 13 22 14
19 1 40 1 47 0 6 -1 12 3 12 9 0 5 7 10 15 10 9 0 15 7 13 16 -2 12 6 18 27
21 29 3 29 3 10 -13 -19 -15 -18 -16 15 -9 19 4 40 12 45 18 7 7 6 8 -2 3 -6
-3 -18 1 -26 9 -9 8 -24 15 -34 16 -16 0 -16 1 2 8 11 5 22 4 23 0 2 -5 10 -9
19 -9 10 0 12 6 8 19 -4 14 -1 20 12 23 27 5 2 14 -29 10z m-63 -52 c3 -5 -3
-10 -15 -10 -12 0 -18 5 -15 10 3 6 10 10 15 10 5 0 12 -4 15 -10z m-27 -42
c-5 -15 -40 -26 -85 -27 -49 -1 -40 14 15 26 67 14 74 15 70 1z"/>
<path d="M3947 6484 c-7 -65 18 -134 48 -134 8 0 10 9 7 26 -4 20 1 32 19 46
13 11 17 18 8 15 -11 -4 -19 5 -27 28 -7 17 -21 40 -31 49 -18 16 -19 15 -24
-30z"/>
<path d="M1978 6503 c-34 -8 -18 -23 24 -23 23 0 39 2 37 4 -14 12 -47 22 -61
19z"/>
<path d="M1715 6470 c4 -6 11 -8 16 -5 14 9 11 15 -7 15 -8 0 -12 -5 -9 -10z"/>
<path d="M2580 6470 c-8 -5 -10 -10 -5 -10 6 0 17 5 25 10 8 5 11 10 5 10 -5
0 -17 -5 -25 -10z"/>
<path d="M11318 6413 c6 -2 18 -2 25 0 6 3 1 5 -13 5 -14 0 -19 -2 -12 -5z"/>
<path d="M2358 6405 c-3 -3 -22 -6 -42 -7 -27 -1 -36 -5 -35 -17 3 -37 -1 -46
-14 -26 -13 21 -57 33 -57 16 0 -6 9 -11 20 -11 13 0 18 -5 14 -15 -4 -8 -1
-15 6 -15 6 0 8 -5 5 -10 -3 -6 4 -14 17 -19 23 -10 22 -10 -4 -10 -16 -1 -28
-5 -28 -11 0 -12 7 -12 48 -1 24 7 31 7 26 -2 -5 -8 -3 -8 7 1 7 6 22 12 34
12 11 0 27 5 35 11 11 8 2 9 -35 5 l-50 -6 39 15 c56 21 57 27 6 19 -25 -4
-48 -11 -51 -17 -4 -5 -12 -6 -19 -2 -14 9 32 35 64 35 11 0 29 7 39 14 15 12
11 13 -30 8 -57 -6 -53 3 8 22 25 8 35 14 23 15 -11 1 -23 -1 -26 -4z"/>
<path d="M2425 6390 c-3 -5 -2 -10 4 -10 5 0 13 5 16 10 3 6 2 10 -4 10 -5 0
-13 -4 -16 -10z"/>
<path d="M2000 6366 c0 -9 5 -16 10 -16 6 0 10 4 10 9 0 6 -4 13 -10 16 -5 3
-10 -1 -10 -9z"/>
<path d="M2431 6360 c-13 -11 -19 -20 -13 -20 5 0 20 9 33 20 13 10 20 19 14
19 -5 0 -21 -9 -34 -19z"/>
<path d="M2065 6350 c-19 -8 -19 -9 2 -9 12 -1 25 4 28 9 7 12 -2 12 -30 0z"/>
<path d="M2208 6293 c7 -3 16 -2 19 1 4 3 -2 6 -13 5 -11 0 -14 -3 -6 -6z"/>
<path d="M2390 6283 c-14 -3 -29 -9 -35 -15 -11 -11 43 -2 80 13 l20 8 -20 -1
c-11 0 -31 -3 -45 -5z"/>
<path d="M2272 6259 c-13 -5 -20 -14 -17 -19 5 -8 11 -8 20 0 7 6 19 8 28 4 8
-3 18 0 23 7 5 8 3 10 -6 4 -7 -4 -15 -3 -19 2 -4 7 -15 7 -29 2z"/>
<path d="M11505 6250 c3 -5 8 -10 11 -10 2 0 4 5 4 10 0 6 -5 10 -11 10 -5 0
-7 -4 -4 -10z"/>
<path d="M1445 6235 c-5 -2 -23 -6 -39 -10 -26 -5 -27 -8 -13 -23 8 -9 12 -22
10 -29 -2 -6 1 -14 7 -18 8 -5 8 -11 -1 -21 -9 -11 -8 -14 5 -14 9 0 19 -7 22
-15 5 -12 10 -12 32 3 54 34 68 64 37 76 -8 3 -20 17 -25 31 -9 24 -14 27 -35
20z"/>
<path d="M2252 6211 c2 -7 7 -12 11 -12 12 1 9 15 -3 20 -7 2 -11 -2 -8 -8z"/>
<path d="M2388 6203 c7 -3 16 -2 19 1 4 3 -2 6 -13 5 -11 0 -14 -3 -6 -6z"/>
<path d="M2308 6153 c7 -3 16 -2 19 1 4 3 -2 6 -13 5 -11 0 -14 -3 -6 -6z"/>
<path d="M2305 6120 c-13 -6 -15 -9 -5 -9 8 0 22 4 30 9 18 12 2 12 -25 0z"/>
<path d="M2308 6083 c6 -2 18 -2 25 0 6 3 1 5 -13 5 -14 0 -19 -2 -12 -5z"/>
<path d="M2218 6053 c7 -3 16 -2 19 1 4 3 -2 6 -13 5 -11 0 -14 -3 -6 -6z"/>
<path d="M2293 6047 c-23 -7 -45 -16 -50 -21 -5 -5 -1 -7 9 -3 9 3 35 11 57
17 23 6 41 13 41 15 0 6 -7 5 -57 -8z"/>
<path d="M2345 6019 c-4 -6 -5 -13 -2 -16 7 -7 27 6 27 18 0 12 -17 12 -25 -2z"/>
<path d="M2395 6000 c-3 -5 -2 -10 4 -10 5 0 13 5 16 10 3 6 2 10 -4 10 -5 0
-13 -4 -16 -10z"/>
<path d="M2395 5970 c-3 -5 -2 -10 4 -10 5 0 13 5 16 10 3 6 2 10 -4 10 -5 0
-13 -4 -16 -10z"/>
<path d="M4601 5943 c-8 -9 -3 -17 22 -34 17 -13 47 -35 65 -51 l33 -28 127 6
c70 3 128 7 129 8 2 2 -3 10 -10 19 -26 35 -189 55 -222 27 -8 -7 -16 -2 -25
16 -12 21 -12 27 -1 33 22 14 -4 22 -58 19 -26 -2 -53 -8 -60 -15z m110 -48
c1 -17 -18 -17 -25 0 -4 11 -1 15 10 13 8 -2 15 -7 15 -13z"/>
<path d="M2262 5930 c-42 -10 -53 -20 -21 -20 13 1 35 7 49 15 28 16 22 17
-28 5z"/>
<path d="M2350 5919 c0 -5 5 -7 10 -4 6 3 10 8 10 11 0 2 -4 4 -10 4 -5 0 -10
-5 -10 -11z"/>
<path d="M2345 5890 c-4 -6 -12 -7 -18 -4 -9 5 -9 4 0 -6 9 -10 16 -9 34 4 18
12 20 16 7 16 -9 0 -20 -5 -23 -10z"/>
<path d="M2080 5870 c0 -5 15 -10 33 -10 25 -1 28 -3 16 -10 -21 -12 -13 -60
10 -59 9 0 39 7 66 14 45 11 47 14 26 21 -23 7 -24 8 -5 15 13 5 4 8 -28 8
-38 1 -46 4 -42 16 5 12 -3 15 -35 15 -23 0 -41 -4 -41 -10z"/>
<path d="M2310 5848 c0 -10 31 -10 48 0 8 6 2 9 -18 9 -16 0 -30 -4 -30 -9z"/>
<path d="M2200 5780 c0 -5 12 -10 28 -10 21 0 24 2 12 10 -20 13 -40 13 -40 0z"/>
<path d="M2143 5773 c-19 -7 -16 -31 5 -37 9 -3 37 -2 62 3 l45 9 -39 1 c-21
1 -44 7 -50 15 -6 7 -17 12 -23 9z"/>
<path d="M2236 5722 c-6 -10 30 -9 40 1 4 4 -2 7 -14 7 -11 0 -23 -4 -26 -8z"/>
<path d="M2660 5670 c0 -5 5 -10 11 -10 5 0 7 5 4 10 -3 6 -8 10 -11 10 -2 0
-4 -4 -4 -10z"/>
<path d="M2278 5663 c7 -3 16 -2 19 1 4 3 -2 6 -13 5 -11 0 -14 -3 -6 -6z"/>
<path d="M2238 5643 c7 -3 16 -2 19 1 4 3 -2 6 -13 5 -11 0 -14 -3 -6 -6z"/>
<path d="M2255 5621 c-10 -18 17 -23 33 -7 15 15 15 16 -5 16 -12 0 -24 -4
-28 -9z"/>
<path d="M2216 5581 c-6 -9 16 -21 40 -21 8 0 11 6 8 15 -7 16 -39 20 -48 6z"/>
<path d="M2220 5546 c0 -2 11 -6 25 -8 14 -3 25 -1 25 3 0 5 -11 9 -25 9 -14
0 -25 -2 -25 -4z"/>
<path d="M2303 5543 c-15 -5 -17 -23 -4 -23 5 0 11 7 15 15 3 8 4 15 3 14 -1
0 -8 -3 -14 -6z"/>
<path d="M2890 5531 c0 -6 5 -13 10 -16 6 -3 10 1 10 9 0 9 -4 16 -10 16 -5 0
-10 -4 -10 -9z"/>
<path d="M5891 5472 c-8 -15 -15 -75 -12 -109 1 -15 95 -63 124 -63 12 0 46
-7 74 -14 87 -23 81 14 -9 60 -53 27 -105 73 -133 117 -20 31 -31 34 -44 9z"/>
<path d="M5526 5433 c-6 -15 -8 -15 -16 -3 -7 11 -10 7 -10 -15 l0 -30 94 0
c102 0 112 11 34 34 -24 7 -51 17 -60 22 -26 13 -35 11 -42 -8z"/>
<path d="M2258 5423 c7 -3 16 -2 19 1 4 3 -2 6 -13 5 -11 0 -14 -3 -6 -6z"/>
<path d="M2305 5410 c-16 -7 -17 -9 -3 -9 9 -1 20 4 23 9 7 11 7 11 -20 0z"/>
<path d="M5481 5408 c-1 -10 -5 -18 -11 -18 -15 0 -12 -17 5 -23 19 -8 24 2
14 33 -4 16 -7 19 -8 8z"/>
<path d="M2335 5390 c-16 -7 -17 -9 -3 -9 9 -1 20 4 23 9 7 11 7 11 -20 0z"/>
<path d="M2780 5365 c0 -8 2 -15 4 -15 2 0 6 7 10 15 3 8 1 15 -4 15 -6 0 -10
-7 -10 -15z"/>
<path d="M5820 5340 c0 -5 5 -10 11 -10 5 0 7 5 4 10 -3 6 -8 10 -11 10 -2 0
-4 -4 -4 -10z"/>
<path d="M2566 5315 c-11 -8 -16 -15 -10 -15 5 0 18 7 28 15 11 8 16 15 10 15
-5 0 -18 -7 -28 -15z"/>
<path d="M5572 5300 c-57 -13 -57 -20 -7 -120 36 -71 55 -129 82 -244 19 -83
39 -155 43 -160 10 -10 49 31 50 51 0 17 136 31 353 38 104 3 113 0 143 -50
14 -24 32 -49 40 -56 21 -17 68 -112 93 -185 11 -32 41 -97 67 -144 26 -47 57
-112 69 -145 26 -67 52 -89 41 -34 -4 19 -11 88 -17 154 -5 66 -16 138 -24
160 -8 23 -15 62 -15 88 0 28 -8 64 -20 87 -11 22 -20 59 -20 85 0 37 -5 51
-26 70 -14 13 -34 27 -44 30 -10 3 -29 23 -43 45 -47 70 -165 135 -242 131
-92 -4 -113 -3 -167 4 -32 4 -58 13 -58 19 -1 19 -203 172 -235 178 -16 3 -45
2 -63 -2z"/>
<path d="M2580 5290 c-8 -5 -10 -10 -5 -10 6 0 17 5 25 10 8 5 11 10 5 10 -5
0 -17 -5 -25 -10z"/>
<path d="M2590 5265 c-19 -14 -29 -25 -22 -25 7 0 10 -4 7 -10 -10 -17 22 -11
36 6 12 15 11 16 -9 10 -31 -10 -27 -1 11 23 17 11 28 21 22 20 -5 0 -26 -11
-45 -24z"/>
<path d="M2645 5244 c9 -9 18 -14 21 -11 9 9 -6 27 -22 27 -13 0 -13 -2 1 -16z"/>
<path d="M2626 5232 c-4 -7 -4 -12 1 -13 4 0 -2 -4 -14 -9 -22 -9 -32 -30 -15
-30 15 0 44 38 40 51 -3 10 -6 10 -12 1z"/>
<path d="M2650 5191 c0 -5 -9 -13 -20 -16 -11 -3 -20 -13 -20 -22 0 -13 3 -13
15 -3 8 7 15 9 15 4 1 -11 30 27 30 38 0 4 -4 8 -10 8 -5 0 -10 -4 -10 -9z"/>
<path d="M2685 5180 c3 -5 10 -10 16 -10 5 0 9 5 9 10 0 6 -7 10 -16 10 -8 0
-12 -4 -9 -10z"/>
<path d="M11950 4671 c0 -60 2 -69 20 -74 19 -5 20 0 20 69 0 67 -2 74 -20 74
-18 0 -20 -7 -20 -69z m22 -18 c-10 -28 -10 -28 -11 12 -1 28 2 36 10 28 8 -8
8 -19 1 -40z"/>
<path d="M11932 4698 c-1 -10 -9 -18 -17 -18 -20 0 -19 -26 1 -34 23 -9 26 -3
21 36 -2 18 -5 25 -5 16z"/>
<path d="M11768 4653 c7 -3 16 -2 19 1 4 3 -2 6 -13 5 -11 0 -14 -3 -6 -6z"/>
<path d="M11951 4433 c1 -27 3 -40 6 -30 8 30 23 18 23 -18 0 -34 -13 -47 -23
-22 -3 7 -6 5 -6 -5 -1 -12 6 -18 19 -18 18 0 20 7 20 70 0 63 -2 70 -20 70
-17 0 -20 -6 -19 -47z m29 13 c0 -3 -4 -8 -10 -11 -5 -3 -10 -1 -10 4 0 6 5
11 10 11 6 0 10 -2 10 -4z"/>
<path d="M11895 4430 c-16 -4 -23 -8 -14 -9 8 0 25 -10 37 -21 l22 -21 0 31
c0 16 -3 29 -7 29 -5 -1 -21 -5 -38 -9z"/>
<path d="M5727 4400 c-6 -22 -27 -222 -27 -258 0 -7 4 -11 9 -8 11 7 35 220
29 261 -4 30 -4 30 -11 5z"/>
<path d="M11984 4230 c0 -52 1 -74 3 -47 2 26 2 68 0 95 -2 26 -3 4 -3 -48z"/>
<path d="M11860 4190 c0 -5 5 -10 11 -10 5 0 7 5 4 10 -3 6 -8 10 -11 10 -2 0
-4 -4 -4 -10z"/>
<path d="M11860 4160 c0 -5 5 -10 10 -10 6 0 10 5 10 10 0 6 -4 10 -10 10 -5
0 -10 -4 -10 -10z"/>
<path d="M6206 4054 c-11 -29 -6 -34 36 -34 38 0 40 1 23 14 -11 8 -23 12 -27
10 -5 -3 -8 2 -8 10 0 21 -16 21 -24 0z"/>
<path d="M6288 4038 c9 -9 15 -9 24 0 9 9 7 12 -12 12 -19 0 -21 -3 -12 -12z"/>
<path d="M11963 3980 c0 -25 2 -35 4 -22 2 12 2 32 0 45 -2 12 -4 2 -4 -23z"/>
<path d="M5650 3979 c0 -11 5 -17 10 -14 6 3 10 13 10 21 0 8 -4 14 -10 14 -5
0 -10 -9 -10 -21z"/>
<path d="M6142 3903 c-22 -32 -29 -63 -13 -63 12 0 43 68 39 82 -2 6 -14 -2
-26 -19z"/>
<path d="M5620 3812 c0 -30 126 -76 182 -67 43 8 61 25 26 25 -20 0 -122 25
-185 45 -14 4 -23 3 -23 -3z"/>
<path d="M5765 3810 c-3 -5 1 -10 10 -10 9 0 13 5 10 10 -3 6 -8 10 -10 10 -2
0 -7 -4 -10 -10z"/>
<path d="M6439 3788 c-7 -13 -30 -40 -53 -60 -22 -20 -37 -40 -32 -45 5 -4 11
-2 13 5 3 6 11 12 19 12 8 0 17 7 20 15 4 8 11 15 18 15 14 1 46 69 35 75 -4
3 -13 -5 -20 -17z"/>
<path d="M6315 3670 c-3 -5 -1 -10 4 -10 6 0 11 5 11 10 0 6 -2 10 -4 10 -3 0
-8 -4 -11 -10z"/>
<path d="M6345 3640 c3 -5 8 -10 11 -10 2 0 4 5 4 10 0 6 -5 10 -11 10 -5 0
-7 -4 -4 -10z"/>
<path d="M6290 3630 c-20 -12 -9 -21 18 -13 12 3 19 9 16 14 -7 11 -15 11 -34
-1z"/>
<path d="M11982 3085 c0 -16 2 -22 5 -12 2 9 2 23 0 30 -3 6 -5 -1 -5 -18z"/>
<path d="M11932 3050 c0 -19 2 -27 5 -17 2 9 2 25 0 35 -3 9 -5 1 -5 -18z"/>
<path d="M11905 3050 c3 -5 8 -10 11 -10 2 0 4 5 4 10 0 6 -5 10 -11 10 -5 0
-7 -4 -4 -10z"/>
<path d="M11952 3030 c0 -19 2 -27 5 -17 2 9 2 25 0 35 -3 9 -5 1 -5 -18z"/>
<path d="M11976 3034 c-3 -9 -2 -23 4 -32 7 -14 9 -10 10 16 0 35 -5 41 -14
16z"/>
<path d="M11857 3034 c-8 -8 3 -34 14 -34 5 0 9 9 9 20 0 19 -11 26 -23 14z"/>
<path d="M11980 2929 c0 -6 -7 -9 -15 -5 -11 4 -15 -2 -15 -20 0 -14 -4 -23
-9 -19 -5 3 -12 -3 -14 -12 -4 -16 -5 -16 -6 1 -1 12 -6 16 -17 12 -9 -3 -19
-6 -24 -6 -4 0 -10 -10 -13 -21 -5 -19 -11 -21 -57 -17 -56 6 -74 -9 -63 -50
6 -26 5 -25 38 -10 18 8 31 8 48 1 12 -6 43 -19 69 -30 40 -15 48 -22 47 -43
0 -23 -1 -23 -9 -5 -7 17 -9 17 -9 3 -1 -12 -9 -18 -26 -18 -20 0 -25 5 -25
25 0 41 -26 30 -27 -12 -1 -21 -4 -68 -7 -105 -5 -52 -3 -68 7 -68 7 0 21 -9
30 -21 10 -11 25 -18 33 -15 10 4 14 -3 14 -24 0 -28 -2 -30 -39 -30 -40 0
-50 -10 -52 -53 0 -18 -3 -17 -15 10 -15 35 -42 48 -76 37 -13 -4 -40 -6 -60
-5 -28 1 -39 -3 -48 -19 -12 -23 -40 -27 -40 -6 0 8 -7 17 -16 20 -24 9 -36 7
-28 -5 11 -18 -17 -29 -77 -29 -43 0 -60 4 -74 20 -37 41 -44 28 -45 -81 0
-50 -28 -159 -29 -118 -1 10 -12 19 -28 22 -20 4 -33 -2 -54 -23 -27 -26 -28
-27 -31 -6 -2 11 -12 22 -23 25 -16 3 -17 1 -7 -12 11 -13 9 -16 -15 -21 -16
-4 -46 -4 -67 -1 -32 6 -41 3 -53 -15 -11 -16 -18 -19 -26 -11 -12 12 -50 15
-61 4 -4 -4 -17 -8 -28 -8 -27 0 -35 -21 -10 -27 23 -6 37 -74 22 -112 -8 -22
-15 -26 -47 -24 -73 2 -129 -20 -88 -36 27 -10 16 -26 -19 -26 -19 0 -38 -4
-41 -10 -3 -5 -16 -10 -29 -10 -24 0 -56 -28 -56 -50 0 -10 3 -10 14 -1 11 10
24 9 58 0 24 -7 46 -18 50 -24 4 -5 8 0 8 13 0 21 4 22 79 22 54 0 81 -4 84
-12 4 -10 8 -10 15 1 8 11 11 10 16 -6 5 -16 16 -20 52 -21 24 0 51 -6 59 -12
11 -9 15 -9 15 -1 0 6 9 11 21 11 18 0 20 -4 14 -27 -4 -16 -8 -47 -9 -70 -1
-27 -6 -43 -13 -43 -7 0 -13 -5 -13 -11 0 -6 8 -8 20 -4 10 3 28 1 39 -4 14
-8 20 -8 23 0 2 6 15 2 30 -10 14 -12 31 -21 37 -21 6 0 11 -5 11 -10 0 -7 7
-7 21 0 11 6 36 9 56 7 31 -4 37 -1 52 24 9 16 22 27 29 24 7 -3 12 5 12 19 0
19 -4 23 -19 19 -10 -3 -22 0 -25 6 -4 6 -16 11 -26 11 -14 0 -18 7 -18 30 1
37 14 39 22 4 4 -16 11 -23 16 -18 16 16 -1 54 -24 55 -11 1 -3 5 19 9 34 7
42 6 54 -11 14 -20 41 -26 41 -9 0 6 12 8 28 4 18 -4 23 -3 14 4 -19 13 47 24
183 30 29 2 36 5 25 12 -22 14 0 19 103 22 87 3 87 3 88 -22 1 -17 4 -12 9 15
l7 40 2 -40 c2 -30 4 -35 10 -20 8 19 8 19 19 0 9 -15 11 116 12 533 0 303 -2
552 -5 552 -3 0 -5 -5 -5 -11z m-3 -419 c-1 -11 -5 -20 -9 -20 -4 0 -8 9 -8
20 0 11 4 20 9 20 6 0 9 -9 8 -20z m-30 -57 c-3 -10 -5 -2 -5 17 0 19 2 27 5
18 2 -10 2 -26 0 -35z m-157 -37 c0 -3 -4 -8 -10 -11 -5 -3 -10 -1 -10 4 0 6
5 11 10 11 6 0 10 -2 10 -4z m-390 -56 c0 -13 7 -20 19 -20 15 0 20 -9 23 -46
2 -33 -1 -48 -10 -52 -19 -7 -32 16 -32 61 0 25 -5 37 -14 37 -9 0 -12 7 -9
20 3 11 9 20 14 20 5 0 9 -9 9 -20z m144 -42 c16 -79 13 -88 -26 -73 -18 7
-11 95 8 95 7 0 16 -10 18 -22z m53 -35 c-3 -10 -5 -4 -5 12 0 17 2 24 5 18 2
-7 2 -21 0 -30z m220 -4 c12 6 24 5 38 -2 19 -11 18 -12 -10 -18 -25 -5 -21
-7 22 -8 28 0 54 4 56 9 3 6 4 5 3 -2 -3 -13 -142 -32 -158 -22 -5 3 -8 16 -8
30 0 22 2 23 20 14 13 -7 26 -8 37 -1z m-217 -35 c0 -8 -4 -12 -10 -9 -5 3
-10 10 -10 16 0 5 5 9 10 9 6 0 10 -7 10 -16z m-519 -176 c28 -8 39 -17 39
-31 0 -15 -5 -18 -22 -14 -13 4 -42 9 -65 13 -33 5 -43 11 -43 25 0 23 32 25
91 7z m846 -10 c-3 -8 -6 -5 -6 6 -1 11 2 17 5 13 3 -3 4 -12 1 -19z m-145
-73 c-5 -61 -22 -57 -22 5 0 35 4 48 13 45 8 -4 11 -21 9 -50z m58 -5 c0 -22
-4 -40 -10 -40 -5 0 -10 18 -10 40 0 22 5 40 10 40 6 0 10 -18 10 -40z m-643
-227 c-3 -15 -6 -13 -14 7 -8 18 -7 27 1 32 12 8 20 -13 13 -39z"/>
<path d="M11583 2831 c-59 -10 -62 -18 -11 -26 61 -9 108 -25 108 -36 0 -5 5
-9 10 -9 6 0 10 9 10 19 0 11 5 23 10 26 8 5 7 11 -1 21 -12 15 -55 16 -126 5z"/>
<path d="M11750 2632 c-6 -2 -8 -8 -4 -13 3 -5 2 -15 -3 -21 -19 -32 -13 -47
22 -54 46 -8 62 -1 59 28 -1 12 -3 33 -3 45 -1 18 -6 22 -31 20 -16 -1 -34 -4
-40 -5z"/>
<path d="M11580 2580 c-13 -8 -12 -10 3 -10 9 0 17 5 17 10 0 12 -1 12 -20 0z"/>
<path d="M11646 2561 c-7 -11 22 -23 35 -15 5 3 9 9 9 15 0 12 -37 12 -44 0z"/>
<path d="M11848 2463 c7 -3 16 -2 19 1 4 3 -2 6 -13 5 -11 0 -14 -3 -6 -6z"/>
<path d="M11260 2350 c0 -5 12 -10 28 -9 24 0 25 1 7 9 -27 12 -35 12 -35 0z"/>
<path d="M10551 2154 c0 -17 2 -46 5 -63 5 -25 9 -29 20 -20 8 6 11 15 8 20
-3 5 26 9 65 9 45 0 71 -4 73 -12 3 -9 6 -9 12 0 4 7 2 12 -3 12 -6 0 -11 10
-11 21 0 20 4 21 54 16 36 -4 60 -1 72 7 18 14 11 41 -8 30 -13 -8 -64 -14
-131 -15 -26 -1 -54 -7 -61 -15 -17 -17 -83 1 -89 25 -3 9 -5 2 -6 -15z"/>
<path d="M10608 2173 c6 -2 18 -2 25 0 6 3 1 5 -13 5 -14 0 -19 -2 -12 -5z"/>
<path d="M10140 2153 c1 -23 30 -40 73 -45 45 -5 48 -4 45 15 -3 19 -9 21 -50
18 -30 -1 -48 2 -48 8 0 6 -4 11 -10 11 -5 0 -10 -3 -10 -7z"/>
<path d="M10495 2139 c-5 -13 -10 -17 -14 -11 -4 7 -44 13 -91 14 -82 3 -85 2
-88 -19 -3 -21 0 -23 46 -23 30 0 52 -5 54 -12 3 -8 14 -7 38 5 40 21 40 21
40 2 0 -8 5 -15 10 -15 6 0 10 8 10 19 0 10 7 24 15 31 8 7 12 16 9 21 -9 15
-22 10 -29 -12z"/>
<path d="M9746 2138 c-10 -5 -28 -7 -42 -4 -16 4 -24 2 -24 -7 0 -9 13 -13 43
-12 23 1 58 -6 78 -16 23 -12 40 -14 50 -8 8 5 31 8 52 7 37 -2 61 14 53 37
-4 13 -188 15 -210 3z m191 -20 c-3 -8 -6 -5 -6 6 -1 11 2 17 5 13 3 -3 4 -12
1 -19z"/>
<path d="M10818 2033 c12 -2 32 -2 45 0 12 2 2 4 -23 4 -25 0 -35 -2 -22 -4z"/>
<path d="M10576 1948 c5 -8 2 -9 -10 -5 -10 4 -15 3 -11 -3 10 -16 81 -12 95
5 8 9 8 15 2 15 -6 0 -13 -6 -15 -12 -4 -10 -6 -10 -6 0 -1 7 -14 12 -32 12
-20 0 -28 -4 -23 -12z"/>
<path d="M10728 1953 c7 -3 16 -2 19 1 4 3 -2 6 -13 5 -11 0 -14 -3 -6 -6z"/>
<path d="M10100 1920 c0 -5 10 -10 23 -10 18 0 19 2 7 10 -19 13 -30 13 -30 0z"/>
<path d="M11550 1710 c0 -24 25 -27 34 -4 9 23 8 24 -14 24 -13 0 -20 -7 -20
-20z"/>
<path d="M11075 1660 c-3 -5 1 -10 9 -10 9 0 16 5 16 10 0 6 -4 10 -9 10 -6 0
-13 -4 -16 -10z"/>
<path d="M11179 1481 c-1 -3 -1 -9 0 -13 0 -5 -6 -8 -14 -8 -27 0 -15 -19 13
-20 79 -2 118 -6 129 -13 7 -5 9 -1 6 13 -3 11 -13 20 -23 20 -10 0 -23 7 -30
15 -11 14 -79 19 -81 6z"/>
<path d="M11060 1421 c0 -11 4 -22 9 -25 11 -7 20 14 13 32 -7 19 -22 14 -22
-7z"/>
<path d="M2780 1419 c0 -5 5 -7 10 -4 6 3 10 8 10 11 0 2 -4 4 -10 4 -5 0 -10
-5 -10 -11z"/>
<path d="M10960 1416 c0 -9 7 -16 16 -16 9 0 14 5 12 12 -6 18 -28 21 -28 4z"/>
<path d="M3501 1405 c1 -28 17 -65 19 -45 3 24 -1 44 -11 55 -5 5 -9 2 -8 -10z"/>
<path d="M11128 1413 c6 -2 18 -2 25 0 6 3 1 5 -13 5 -14 0 -19 -2 -12 -5z"/>
<path d="M2985 1370 c-8 -13 15 -13 35 0 12 8 11 10 -7 10 -12 0 -25 -4 -28
-10z"/>
<path d="M3115 1336 c10 -14 21 -23 26 -20 13 8 12 10 -17 29 l-25 16 16 -25z"/>
<path d="M2840 1330 c0 -13 28 -25 38 -16 3 4 0 11 -8 16 -20 13 -30 12 -30 0z"/>
<path d="M11298 1321 c-9 -11 -15 -21 -13 -23 2 -1 -6 -4 -18 -5 -98 -10 -131
-24 -122 -54 4 -12 1 -19 -7 -20 -30 -1 60 -28 98 -28 33 -1 43 -5 47 -21 8
-31 72 -20 72 12 0 7 9 12 21 10 12 -1 29 8 43 24 21 25 22 26 4 40 -10 7 -13
14 -8 14 23 1 -22 20 -47 20 -16 0 -29 5 -29 10 -1 6 -2 15 -3 22 -2 19 -21
19 -38 -1z"/>
<path d="M11265 1320 c3 -5 8 -10 11 -10 2 0 4 5 4 10 0 6 -5 10 -11 10 -5 0
-7 -4 -4 -10z"/>
<path d="M11008 1313 c6 -2 18 -2 25 0 6 3 1 5 -13 5 -14 0 -19 -2 -12 -5z"/>
<path d="M2633 1293 c-7 -2 -13 -9 -13 -15 0 -7 5 -7 13 1 8 6 17 8 20 4 4 -3
7 -1 7 5 0 13 -7 14 -27 5z"/>
<path d="M3170 1266 c0 -9 5 -16 10 -16 6 0 10 4 10 9 0 6 -4 13 -10 16 -5 3
-10 -1 -10 -9z"/>
<path d="M11455 1270 c-3 -5 -1 -10 4 -10 6 0 11 5 11 10 0 6 -2 10 -4 10 -3
0 -8 -4 -11 -10z"/>
<path d="M11075 1230 c-3 -5 3 -10 15 -10 12 0 18 5 15 10 -3 6 -10 10 -15 10
-5 0 -12 -4 -15 -10z"/>
<path d="M3480 1190 c0 -11 5 -20 10 -20 6 0 10 9 10 20 0 11 -4 20 -10 20 -5
0 -10 -9 -10 -20z"/>
<path d="M11471 1154 c0 -11 3 -14 6 -6 3 7 2 16 -1 19 -3 4 -6 -2 -5 -13z"/>
<path d="M11360 1139 c0 -5 9 -9 20 -9 11 0 20 2 20 4 0 2 -9 6 -20 9 -11 3
-20 1 -20 -4z"/>
<path d="M11254 1105 c-22 -17 -72 -19 -108 -5 -17 6 -26 6 -26 -1 0 -6 -7 -6
-20 1 -23 13 -40 6 -40 -17 0 -8 -9 -28 -21 -44 -15 -22 -19 -37 -14 -60 6
-26 9 -28 23 -17 14 11 15 10 9 -5 -4 -10 -7 -29 -7 -42 0 -41 -38 -43 -72 -5
l-28 33 0 -50 c0 -31 -5 -55 -14 -62 -11 -9 -15 -9 -18 0 -3 8 -9 9 -19 4 -8
-5 -25 -8 -39 -7 -24 3 -25 1 -22 -42 4 -41 2 -46 -17 -46 -12 0 -21 -4 -21
-8 0 -5 -51 -12 -112 -16 -62 -3 -122 -7 -133 -9 -16 -1 -19 3 -17 21 3 18 -1
23 -15 20 -10 -2 -18 -12 -18 -23 0 -22 -40 -34 -57 -17 -13 13 -48 3 -48 -14
0 -17 2 -17 -80 -4 -87 14 -100 19 -100 36 0 18 -58 19 -79 1 -13 -12 -20 -12
-41 -1 l-25 14 30 1 c31 1 28 3 -16 13 -16 3 -29 15 -32 27 -5 18 -10 20 -39
14 -38 -8 -48 -16 -30 -22 17 -6 15 -33 -3 -33 -8 0 -24 13 -36 30 -12 16 -26
27 -30 24 -5 -3 -14 4 -21 16 -11 17 -22 20 -88 18 l-75 -1 60 -6 c51 -5 60
-9 63 -27 3 -20 0 -21 -45 -16 -26 3 -51 9 -54 14 -3 5 -24 8 -45 6 -30 -2
-39 -7 -39 -21 0 -10 -7 -22 -15 -27 -21 -13 -58 -12 -62 1 -4 13 -47 -7 -61
-28 -5 -8 -31 -13 -70 -13 -34 0 -84 -7 -111 -15 -27 -8 -51 -13 -54 -10 -3 2
-24 -9 -47 -26 -32 -23 -48 -29 -69 -23 -23 5 -28 2 -37 -25 -14 -40 -33 -40
-27 -1 3 21 1 27 -6 20 -5 -5 -25 -10 -43 -10 -27 0 -33 -4 -33 -21 0 -15 -4
-19 -16 -15 -9 3 -19 6 -24 6 -5 0 -16 7 -24 16 -15 14 -16 13 -16 -8 0 -33
-21 -59 -50 -63 -14 -2 -40 -6 -57 -10 -23 -5 -33 -4 -33 4 0 7 -4 9 -10 6 -5
-3 -10 1 -10 10 0 10 -7 15 -17 13 -10 -2 -17 -11 -17 -21 1 -9 -2 -14 -8 -11
-5 3 -86 4 -181 3 -95 -2 -209 -2 -254 -1 -51 1 -83 -2 -83 -8 0 -14 -23 -12
-56 5 -34 17 -61 19 -66 5 -2 -6 -40 -11 -86 -13 -45 -1 -82 -6 -82 -10 0 -4
-15 -5 -33 -2 -24 5 -37 2 -46 -9 -15 -17 -47 -21 -55 -7 -3 5 2 12 12 17 11
5 -10 10 -61 14 -51 4 -81 11 -87 20 -7 12 -12 11 -28 -3 -16 -14 -22 -15 -45
-4 -15 6 -27 20 -27 30 0 9 -4 17 -10 17 -5 0 -7 -6 -4 -14 9 -22 -14 -29 -90
-27 -89 3 -123 10 -104 23 8 5 4 6 -13 2 -15 -3 -30 -1 -33 5 -10 16 -24 13
-28 -5 -2 -12 -16 -17 -48 -19 -25 -1 -48 2 -51 7 -3 5 -35 4 -75 -2 -38 -6
-82 -10 -99 -9 -63 5 -145 -1 -145 -11 0 -5 19 -11 43 -11 l42 -2 -45 -7 c-25
-4 -62 -11 -82 -15 -27 -5 -38 -4 -38 4 0 8 -8 10 -20 6 -12 -4 -27 -2 -34 4
-8 7 -23 7 -47 1 -19 -6 -71 -9 -115 -9 -65 2 -84 6 -94 20 -14 19 -40 15 -40
-6 0 -7 -6 -15 -14 -18 -8 -3 -13 1 -12 11 1 14 -10 18 -51 20 -29 2 -56 9
-63 17 -17 20 -57 19 -70 -2 -10 -17 -12 -17 -26 3 -12 18 -22 21 -54 17 -26
-4 -46 0 -61 11 -31 21 -46 20 -54 -4 -5 -15 -12 -19 -27 -15 -27 9 -78 -14
-88 -39 -7 -17 -9 -18 -9 -3 -1 22 -53 23 -76 1 -10 -11 -27 -15 -50 -12 -27
3 -36 -1 -45 -18 -10 -17 -22 -22 -63 -23 -64 -1 -87 -8 -87 -27 0 -8 -4 -12
-10 -9 -5 3 -10 15 -10 26 0 24 -20 26 -20 2 -1 -38 -27 -56 -69 -50 -22 3
-41 1 -43 -4 -4 -12 -330 -27 -382 -18 -21 4 -42 12 -46 19 -6 9 -9 9 -15 0
-4 -6 -17 -9 -30 -6 -19 5 -25 1 -34 -24 -5 -17 -15 -30 -21 -30 -6 0 -9 3 -7
7 3 5 1 17 -4 28 -7 19 -8 19 -8 -1 -1 -12 -8 -25 -17 -28 -8 -3 -13 -2 -10 3
3 5 -1 12 -10 15 -24 9 -64 7 -64 -4 0 -5 -6 -7 -14 -4 -8 3 -17 1 -21 -5 -3
-6 -19 -11 -35 -11 -20 0 -31 -6 -35 -20 -7 -23 -18 -25 -34 -6 -17 21 -52 7
-63 -25 -5 -16 -16 -29 -23 -29 -22 0 -40 -29 -27 -42 20 -20 13 -31 -15 -26
-16 3 -39 2 -53 -2 l-25 -8 24 -1 c22 -1 22 -14 0 -17 -5 -1 -12 -2 -15 -3 -4
0 -1 -8 7 -17 18 -22 -6 -36 -48 -29 -17 3 -34 1 -38 -5 -8 -13 -55 -13 -55 0
0 5 -15 12 -34 16 -19 3 -37 12 -40 20 -3 8 -12 14 -19 14 -8 0 -32 13 -54 29
-57 41 -78 46 -130 26 -25 -10 -48 -14 -52 -9 -11 16 -90 32 -94 20 -3 -8 -11
-7 -26 2 -29 17 -41 8 -42 -31 -1 -31 -1 -31 -21 16 l-21 48 -27 -33 c-17 -20
-37 -33 -51 -33 -14 0 -23 -5 -21 -12 1 -7 -2 -13 -8 -13 -5 0 -10 -7 -10 -16
0 -8 -5 -12 -10 -9 -6 4 -8 11 -5 16 4 5 2 16 -3 25 -14 25 -19 7 -27 -94 l-8
-92 4187 0 4186 0 0 353 c0 195 -3 441 -7 548 l-6 194 -116 -2 c-159 -3 -166
-3 -251 1 -210 9 -333 17 -340 21 -4 2 -16 -2 -26 -10z m-127 -97 c-3 -8 -6
-5 -6 6 -1 11 2 17 5 13 3 -3 4 -12 1 -19z m7 -43 c-4 -8 -8 -15 -10 -15 -2 0
-4 7 -4 15 0 8 4 15 10 15 5 0 7 -7 4 -15z m-2947 -461 c-3 -3 -12 -4 -19 -1
-8 3 -5 6 6 6 11 1 17 -2 13 -5z"/>
<path d="M3562 938 c-9 -47 -6 -61 8 -38 10 15 14 80 6 80 -3 0 -9 -19 -14
-42z"/>
<path d="M11008 903 c7 -3 16 -2 19 1 4 3 -2 6 -13 5 -11 0 -14 -3 -6 -6z"/>
<path d="M3590 874 c0 -8 5 -12 10 -9 6 3 10 10 10 16 0 5 -4 9 -10 9 -5 0
-10 -7 -10 -16z"/>
<path d="M3080 860 c-12 -8 -12 -10 3 -16 21 -8 35 2 21 16 -5 5 -15 6 -24 0z"/>
<path d="M3540 815 c1 -26 2 -28 11 -12 8 14 8 22 0 30 -8 8 -11 3 -11 -18z"/>
<path d="M9708 823 c7 -3 16 -2 19 1 4 3 -2 6 -13 5 -11 0 -14 -3 -6 -6z"/>
<path d="M4080 579 c0 -10 -10 -17 -27 -18 -206 -12 -210 -12 -226 3 -9 9 -28
16 -43 16 -27 0 -27 -1 -8 -15 18 -13 17 -14 -17 -15 -19 0 -44 -6 -54 -14
-18 -13 -18 -14 1 -23 10 -6 96 -11 189 -12 94 0 180 -3 192 -5 13 -3 29 2 37
9 12 12 16 12 26 0 13 -16 40 -9 40 10 0 16 124 24 187 13 21 -3 42 -2 48 3 5
5 19 9 32 9 13 0 23 5 23 10 0 6 8 10 18 11 13 0 12 3 -6 12 -18 8 -28 8 -43
-1 -26 -17 -49 -15 -49 3 0 12 -7 14 -27 9 -16 -4 -36 -11 -45 -15 -9 -5 -32
-9 -52 -9 -19 0 -36 -6 -38 -12 -3 -9 -9 -8 -22 5 -21 21 -50 22 -70 2 -21
-22 -33 -19 -50 13 -10 17 -15 21 -16 11z"/>
<path d="M3515 560 c-3 -5 -1 -10 4 -10 6 0 11 5 11 10 0 6 -2 10 -4 10 -3 0
-8 -4 -11 -10z"/>
<path d="M8845 550 c-18 -8 -17 -9 8 -9 15 -1 27 4 27 9 0 12 -8 12 -35 0z"/>
<path d="M3430 510 c0 -5 5 -10 11 -10 5 0 7 5 4 10 -3 6 -8 10 -11 10 -2 0
-4 -4 -4 -10z"/>
<path d="M2868 383 c7 -3 16 -2 19 1 4 3 -2 6 -13 5 -11 0 -14 -3 -6 -6z"/>
<path d="M4667 373 c-13 -12 -7 -33 8 -33 8 0 15 9 15 20 0 20 -11 26 -23 13z"/>
<path d="M4716 366 c3 -9 11 -16 16 -16 13 0 5 23 -10 28 -7 2 -10 -2 -6 -12z"/>
<path d="M2768 353 c7 -3 16 -2 19 1 4 3 -2 6 -13 5 -11 0 -14 -3 -6 -6z"/>
<path d="M2863 353 c9 -2 25 -2 35 0 9 3 1 5 -18 5 -19 0 -27 -2 -17 -5z"/>
<path d="M4472 270 c0 -14 2 -19 5 -12 2 6 2 18 0 25 -3 6 -5 1 -5 -13z"/>
<path d="M3480 250 c0 -5 5 -10 10 -10 6 0 10 5 10 10 0 6 -4 10 -10 10 -5 0
-10 -4 -10 -10z"/>
<path d="M3622 220 c0 -14 2 -19 5 -12 2 6 2 18 0 25 -3 6 -5 1 -5 -13z"/>
<path d="M3000 189 c0 -5 5 -7 10 -4 6 3 10 8 10 11 0 2 -4 4 -10 4 -5 0 -10
-5 -10 -11z"/>
<path d="M2756 21 c-4 -7 -5 -15 -2 -18 9 -9 19 4 14 18 -4 11 -6 11 -12 0z"/>
<path d="M2896 21 c-4 -7 -5 -15 -2 -18 9 -9 19 4 14 18 -4 11 -6 11 -12 0z"/>
</g>
</svg>
